<?xml version="1.0" encoding="UTF-8" standalone="no"?>
<svg
   xmlns:dc="http://purl.org/dc/elements/1.1/"
   xmlns:cc="http://creativecommons.org/ns#"
   xmlns:rdf="http://www.w3.org/1999/02/22-rdf-syntax-ns#"
   xmlns:svg="http://www.w3.org/2000/svg"
   xmlns="http://www.w3.org/2000/svg"
   id="svg1385"
   version="1.1"
   viewBox="0 0 47.625001 47.625001"
   height="180"
   width="180">
  <defs
     id="defs1379" />
  <metadata
     id="metadata1382">
    <rdf:RDF>
      <cc:Work
         rdf:about="">
        <dc:format>image/svg+xml</dc:format>
        <dc:type
           rdf:resource="http://purl.org/dc/dcmitype/StillImage" />
        <dc:title></dc:title>
      </cc:Work>
    </rdf:RDF>
  </metadata>
  <g
     transform="translate(0,-249.37498)"
     id="layer1">
    <g
       transform="matrix(0.35277777,0,0,-0.35277777,29.8193,286.25008)"
       id="g4087">
      <path
         id="path4089"
         d="m 0,0 c -6.2762493,-3.1486513 2.6247807,-10.649549 4.504375,-14.661125 4.4707531,-5.511922 6.681002,2.667679 2.5433281,5.3438281 C 4.5477889,-6.4267669 3.6308717,-1.7139793 0,0 Z m -29.488,0.335 c -3.940979,-3.8634023 -5.198283,-10.882532 -5.498965,-16.45168 3.624747,-7.143298 7.392131,3.415717 7.047934,7.2686546 0.374452,2.7734793 3.444345,9.37328358 -1.548969,9.1830254 z m 70.41,0.766 C 37.916668,4.9346477 28.454973,12.29017 25.496797,6.1951406 29.148564,1.925579 34.79487,-3.0464848 40.726109,-2.3521875 42.063373,-1.6559378 41.541465,0.10290208 40.922,1.101 Z m -96.649,15.664 c -5.390465,-0.248624 -9.118037,-5.289996 -13.017752,-8.5049844 -3.185336,-6.0986637 5.571076,-4.2565746 7.327707,-0.5646584 1.850805,2.2965261 8.733541,5.8524538 5.690045,9.0696428 z m 58.743,19.09 c -4.8855302,-2.025712 -9.4401807,-5.032326 -14.750623,-5.941561 -7.71301,-1.164639 -16.358246,-1.640783 -22.95489,3.307763 -4.796963,4.55582 -5.218215,-2.921489 -1.112331,-4.403624 5.337107,-3.943721 12.603793,-4.172091 19.046365,-4.366426 7.0310226,0.533127 14.3592811,2.712586 19.6953306,7.469506 C 3.787693,32.863704 4.7045607,35.310802 3.016,35.855 Z m 27.812,3.351 c 4.595252,-0.65636 11.593729,5.819984 3.78175,6.545562 C 30.615325,45.125137 21.314285,46.635829 22.137172,40.419816 24.218799,37.931652 28.039373,39.018095 30.828,39.206 Z m -62.415,-0.467 c 5.698188,-0.742493 5.823904,8.007471 3.887365,11.552234 -6.289902,4.398033 -7.289763,-6.357318 -5.038803,-10.215531 l 0.481735,-0.798435 z m 27.469,0.67 c 3.30419049,2.534073 3.43213695,12.362894 -2.5168594,10.754094 C -9.7243722,48.1566 -9.4683883,37.590413 -4.118,39.409 Z m -55.123,5.212 c -1.583169,4.797311 -7.960305,6.709585 -12.516089,8.040523 -7.988269,-0.214491 -1.049264,-8.681584 3.441351,-8.978441 2.763995,-1.150538 7.372476,-2.464788 9.074738,0.937918 z M -17.76,9.718 c -13.135123,-0.4393424 -26.840093,9.498862 -27.595283,23.188803 -1.452041,15.006863 11.067525,30.816643 26.679439,30.274931 C -7.8363717,62.628783 3.7184136,57.419792 8.881218,47.439461 11.257548,40.942668 11.793203,33.497418 9.8625375,26.807742 6.0466991,15.48916 -6.4642068,9.6948226 -17.76,9.718 Z M 13.739,48.924 C 7.8094849,61.531918 -6.2138222,68.79444 -19.729625,69.570625 -30.538767,69.923865 -40.971598,64.063951 -46.614057,54.885667 -52.115288,47.552449 -53.039084,37.84877 -51.364455,29.090225 -48.457743,20.324824 -43.584344,11.001991 -34.56982,7.2967793 -26.50057,3.8067601 -17.357791,3.9744435 -8.7636361,4.7216385 4.9653613,7.114268 18.030989,19.328371 17.12225,33.9955 17.336024,39.225184 15.665347,44.131501 13.739,48.924 Z M 30.379,82.37 C 25.462402,85.535767 20.431373,78.512188 17.155152,75.364176 13.354723,73.702232 12.230297,65.151679 18.086,68.680625 22.724265,72.230671 29.445692,75.50834 30.595389,81.68474 Z m -79.531,-9.53 c 2.499038,-3.212916 6.924573,-2.156771 3.740923,2.045937 -1.626522,3.350451 -6.589353,14.066891 -10.214923,7.548063 -0.282419,-4.161479 3.637422,-7.186523 6.474,-9.594 z m 33.066,6.577 c 3.408978,1.978688 5.828113,11.385427 2.717094,13.404 -4.012611,-2.309018 -5.241668,-8.719935 -3.8435,-12.939047 l 0.466722,-0.328928 z"
         style="fill:#ffa500;fill-opacity:1;fill-rule:evenodd;stroke:none" />
    </g>
  </g>
</svg>
