<?xml version="1.0" encoding="UTF-8" standalone="no"?>
<svg
   xmlns:dc="http://purl.org/dc/elements/1.1/"
   xmlns:cc="http://creativecommons.org/ns#"
   xmlns:rdf="http://www.w3.org/1999/02/22-rdf-syntax-ns#"
   xmlns:svg="http://www.w3.org/2000/svg"
   xmlns="http://www.w3.org/2000/svg"
   xmlns:sodipodi="http://sodipodi.sourceforge.net/DTD/sodipodi-0.dtd"
   xmlns:inkscape="http://www.inkscape.org/namespaces/inkscape"
   id="svg1385"
   version="1.1"
   viewBox="0 0 47.625001 47.625001"
   height="180"
   width="180"
   sodipodi:docname="02d.svg"
   inkscape:version="0.92.3 (2405546, 2018-03-11)">
  <sodipodi:namedview
     pagecolor="#ffffff"
     bordercolor="#666666"
     borderopacity="1"
     objecttolerance="10"
     gridtolerance="10"
     guidetolerance="10"
     inkscape:pageopacity="0"
     inkscape:pageshadow="2"
     inkscape:window-width="1920"
     inkscape:window-height="1017"
     id="namedview19"
     showgrid="false"
     inkscape:zoom="1.3111111"
     inkscape:cx="76.652541"
     inkscape:cy="89.999999"
     inkscape:window-x="-8"
     inkscape:window-y="-8"
     inkscape:window-maximized="1"
     inkscape:current-layer="svg1385" />
  <defs
     id="defs1379">
    <clipPath
       id="clipPath4655"
       clipPathUnits="userSpaceOnUse">
      <g
         id="use4657"
         transform="translate(-4.4982485e-7,8.4001222e-6)">
        <path
           id="path4545"
           d="m -128.98947,97.953372 c -11.43189,0.408324 -23.70408,-6.429464 -26.6441,-18.009007 -2.27329,-3.72461 2.10007,-11.02979 -3.48063,-11.381458 -5.78821,-1.940616 -11.86316,-5.615661 -13.16006,-12.0702 -2.52329,-11.298894 5.87896,-23.160627 16.95935,-25.696885 14.70979,-4.773026 30.39092,-3.672796 45.61478,-3.321994 13.929717,0.969544 28.505509,3.132865 40.353069,11.034744 6.080235,4.225725 11.077625,10.972157 11.433254,18.541977 -0.21125,5.495093 -2.386283,12.041051 -8.617868,13.033287 -4.32877,1.142417 -9.064302,0.761018 -13.19801,-0.948294 -0.06847,4.3004 -1.932466,8.965422 -4.426577,12.56804 -4.390048,6.042588 -12.77184,6.258537 -19.329358,4.346999 -3.1101,-0.07198 -7.23805,-4.267518 -7.3787,0.833719 -2.04177,4.651062 -6.80106,6.786529 -10.93861,9.195585 -2.24621,1.069183 -4.70214,1.721308 -7.18654,1.873487 z m 2.06689,-7.20117 c 6.37009,-0.19427 12.40813,-4.993238 13.31592,-11.42829 2.63658,-3.903477 7.52148,1.091577 11.17305,1.375356 5.647561,2.096133 12.71424,0.632344 16.002664,-4.750279 2.832722,-3.959573 3.782368,-8.890343 3.443755,-13.678323 -0.586053,-4.886768 4.491742,-3.025527 4.597819,0.49716 5.295176,2.310211 13.618127,0.882374 15.065605,-5.531688 0.71882,-7.645431 -5.996596,-13.612881 -12.501042,-16.281527 -12.989213,-5.279131 -27.063451,-6.725142 -40.852711,-8.453516 -6.35282,-0.237154 -12.69856,0.520629 -19.05754,0.216479 -9.37761,0.313126 -20.05514,1.883977 -26.4177,9.523531 -3.76665,4.394314 -4.72147,11.718236 -0.0707,15.877201 3.29015,3.797151 8.94193,3.993009 12.84762,5.872177 -0.78642,4.307078 -1.5788,8.738476 -0.58938,13.136268 1.25328,8.433373 10.25474,12.277839 17.77125,13.237246 1.74523,0.229124 3.50819,0.43661 5.27136,0.388205 z m -8.3247,-12.208005 c -3.93143,1.294158 -9.89806,-7.268069 -4.01278,-6.238393 0.56978,3.471257 10.53366,2.421353 5.23445,6.01427 l -0.61303,0.157551 z m 18.03222,-7.148438 c -4.28646,-1.302881 -3.10184,-10.152581 1.05999,-10.757671 3.17796,1.395329 2.29968,9.909741 -1.05999,10.757671 z m -16.69189,-1.51026 c -4.5842,-1.301412 -3.80642,-8.783651 -0.4043,-11.083005 5.67129,-1.501844 4.32741,7.751867 1.7709,10.347075 l -0.65514,0.515563 z m 33.937505,-9.284175 c -3.573695,-2.127676 -6.798365,-5.17009 -10.707865,-6.907143 -9.23935,-5.185512 -20.40793,-4.688305 -30.4236,-2.410815 -2.53082,0.256697 -10.50728,4.966171 -8.68935,-0.684025 5.78606,-4.787372 13.61175,-4.961868 20.72618,-5.668719 8.23928,-0.100351 16.44001,2.552215 23.52023,6.657074 2.52342,1.782793 7.93713,5.823013 5.574405,9.013628 z"
           style="fill:#f5f5f5;fill-opacity:1;fill-rule:evenodd;stroke:none;stroke-width:0.99999994"
           inkscape:connector-curvature="0" />
      </g>
    </clipPath>
    <clipPath
       id="clipPath4655-8"
       clipPathUnits="userSpaceOnUse">
      <g
         id="use4657-2"
         transform="translate(-2.0351962e-7,1.5343801e-5)">
        <path
           id="path4550"
           d="m -9.4523786,69.995268 c -4.4508604,-0.260895 -1.6249124,-5.923298 -0.4847625,-8.270723 0.700965,-3.136208 5.9598151,-8.720093 7.8341702,-3.64116 -0.1860675,4.015147 -3.0603751,7.215968 -4.7784076,10.6698 -0.6011251,0.802058 -1.5915376,1.20441 -2.5710001,1.242083 z M 20.803972,66.218905 c -3.129645,-0.624975 -4.999147,-3.753405 -6.50136,-6.332963 -2.151323,-2.487045 0.439133,-6.732187 3.30018,-3.77394 3.037215,1.896518 5.820263,5.580375 4.560555,9.295373 -0.262612,0.51159 -0.812497,0.785145 -1.359375,0.81153 z M -29.676009,53.77066 c -3.796365,-2.349705 1.777012,-6.408983 4.178377,-7.892513 2.169721,-2.831618 7.970086,-0.637545 5.121646,2.691098 -2.396663,2.574262 -5.805263,4.679692 -9.300023,5.201415 z M 3.9655942,50.794097 c -4.33089007,0.08931 -8.8888652,0.169665 -12.7185978,-2.203537 -4.2559574,-2.467935 -8.2812004,-5.614786 -11.2569604,-9.553456 -1.784595,-2.112907 -2.309737,-3.974565 0.492188,-4.95774 2.06463,-2.33883 3.061657,-0.150157 4.349325,1.868063 4.060357,5.374327 10.615305,8.21736 17.2124852,8.734883 6.2801252,0.981277 13.7893808,0.292972 17.8950158,-5.195911 4.46199,-5.996827 6.383925,-13.535775 6.967147,-20.889675 1.26318,-2.166818 -0.268635,-6.363128 1.47579,-7.290923 1.118798,0.03417 3.171855,-1.6908524 3.46851,-0.104317 1.607371,5.913922 0.695791,12.246607 -0.888262,18.065415 C 27.441772,40.971512 16.554367,50.8195 3.9655942,50.794097 Z m 42.1274408,-3.32373 c -3.196087,-0.209827 -6.310117,-1.32063 -9.281242,-2.457097 -4.23816,-0.866895 -3.291683,-6.666863 1.120305,-5.582798 3.552855,0.35208 7.376602,1.714635 9.795345,4.394347 1.934407,1.604101 0.732622,3.717691 -1.634408,3.645548 z M -0.22825586,38.665187 C -4.491301,38.623202 -5.059936,29.776164 -0.26769086,30.309782 2.9991367,30.887979 2.8051567,37.106844 0.33294665,38.580294 Z M 14.650162,35.750154 c -4.436858,-0.386902 -2.8707,-10.348905 1.289535,-7.252905 1.718348,1.812405 2.26188,7.368038 -1.289535,7.252905 z M 45.420675,24.246729 c -2.654992,0.257055 -9.387975,-1.453425 -5.975602,-4.851503 3.06795,-1.633545 7.507215,-2.223772 10.344555,0.140228 2.302418,3.036802 -1.755953,4.988475 -4.368953,4.711275 z"
           style="fill:#ffa500;fill-opacity:1;fill-rule:evenodd;stroke:none;stroke-width:0.99999994"
           inkscape:connector-curvature="0" />
      </g>
    </clipPath>
  </defs>
  <metadata
     id="metadata1382">
    <rdf:RDF>
      <cc:Work
         rdf:about="">
        <dc:format>image/svg+xml</dc:format>
        <dc:type
           rdf:resource="http://purl.org/dc/dcmitype/StillImage" />
        <dc:title />
      </cc:Work>
    </rdf:RDF>
  </metadata>
  <path
     inkscape:connector-curvature="0"
     style="fill:#f5f5f5;fill-opacity:1;fill-rule:evenodd;stroke:none;stroke-width:0.35277775"
     d="m 16.770318,16.88579 c -4.032916,-0.14405 -8.3622721,2.26817 -9.3994458,6.35318 -0.8019661,1.31395 0.740858,3.89106 -1.2278889,4.01512 -2.0419518,0.68461 -4.1850591,1.98108 -4.6425766,4.2581 -0.89016059,3.986 2.0739664,8.17055 5.9828817,9.06529 5.1892866,1.68382 10.7212406,1.29568 16.0918806,1.17192 4.914094,-0.34203 10.05611,-1.1052 14.235665,-3.89281 2.144972,-1.49074 3.90794,-3.87073 4.033398,-6.5412 -0.07452,-1.93854 -0.841827,-4.24781 -3.040192,-4.59785 -1.527094,-0.40302 -3.197684,-0.26847 -4.655964,0.33454 -0.02416,-1.51709 -0.681732,-3.1628 -1.561598,-4.43373 -1.548712,-2.13169 -4.505622,-2.20787 -6.818968,-1.53352 -1.097174,0.0254 -2.553423,1.50548 -2.603042,-0.29412 -0.720291,-1.64079 -2.399262,-2.39414 -3.858898,-3.244 -0.792413,-0.37718 -1.65881,-0.60724 -2.535252,-0.66092 z m 0.729153,2.54041 c 2.247226,0.0685 4.377313,1.7615 4.697561,4.03165 0.930127,1.37706 2.653411,-0.38509 3.941603,-0.4852 1.992334,-0.73947 4.485302,-0.22307 5.645385,1.6758 0.999321,1.39684 1.334335,3.13631 1.21488,4.8254 -0.206747,1.72395 1.584587,1.06734 1.622008,-0.17538 1.868021,-0.81499 4.804173,-0.31129 5.314811,1.95145 0.253583,2.69714 -2.115466,4.80232 -4.41009,5.74376 -4.582306,1.86236 -9.547384,2.37248 -14.411928,2.98222 -2.241134,0.0837 -4.47977,-0.18367 -6.723077,-0.0764 C 11.082412,39.78903 7.3156167,39.23487 5.0710469,36.53981 3.7422565,34.98959 3.4054173,32.40587 5.0461059,30.93868 6.2067977,29.59913 8.2006201,29.53004 9.5784607,28.86711 9.3010292,27.34767 9.0214951,25.78437 9.3705405,24.23293 c 0.4421293,-2.97511 3.6176435,-4.33135 6.2693015,-4.66981 0.615678,-0.0808 1.237612,-0.15403 1.859619,-0.13695 z m -2.936769,4.30671 c -1.386921,-0.45655 -3.491815,2.56402 -1.415619,2.20077 0.201005,-1.22458 3.716041,-0.8542 1.846597,-2.1217 l -0.216263,-0.0556 z m 6.361367,2.52181 c -1.512168,0.45963 -1.094261,3.58161 0.37394,3.79507 1.121114,-0.49224 0.811276,-3.49594 -0.37394,-3.79507 z m -5.888528,0.53279 c -1.617204,0.45911 -1.342821,3.09868 -0.142628,3.90984 2.000705,0.52981 1.526614,-2.73469 0.624734,-3.65022 l -0.231119,-0.18188 z m 11.972397,3.27525 c -1.26072,0.7506 -2.398312,1.82389 -3.777497,2.43669 -3.259437,1.82933 -7.199464,1.65393 -10.732769,0.85048 -0.892817,-0.0906 -3.7067352,-1.75196 -3.0654099,0.24131 2.0411929,1.68888 4.8019229,1.75043 7.3117359,1.9998 2.906634,0.0354 5.79967,-0.90037 8.297414,-2.34847 0.890206,-0.62893 2.800043,-2.05423 1.966526,-3.17981 z"
     id="path4081" />
  <path
     inkscape:connector-curvature="0"
     style="fill:#ffa500;fill-opacity:1;fill-rule:evenodd;stroke:none;stroke-width:0.35277775"
     d="m 25.166183,5.76232 c -1.570165,0.092 -0.573233,2.0896 -0.171013,2.91772 0.247284,1.10639 2.10249,3.07626 2.763721,1.28452 C 27.693251,8.54811 26.679258,7.41893 26.073175,6.20049 25.861111,5.91755 25.511716,5.77561 25.166183,5.76232 Z m 10.673768,1.33221 c -1.104069,0.22048 -1.763588,1.32412 -2.293535,2.23413 -0.758939,0.87738 0.154916,2.37497 1.16423,1.33136 1.071462,-0.66905 2.053259,-1.96863 1.608862,-3.2792 C 36.226868,7.20034 36.032877,7.10384 35.839951,7.09453 Z M 18.031736,11.486 c -1.339273,0.82892 0.62689,2.26094 1.474038,2.7843 0.76543,0.99893 2.811669,0.22491 1.806803,-0.94936 C 20.467088,12.4128 19.264609,11.67005 18.031736,11.486 Z m 11.868009,1.05006 c -1.527841,-0.0315 -3.135794,-0.0599 -4.486838,0.77736 -1.501407,0.87063 -2.921424,1.98077 -3.971205,3.37025 -0.629566,0.74538 -0.814824,1.40214 0.173633,1.74898 0.728355,0.82509 1.080084,0.053 1.534345,-0.65901 1.432403,-1.89595 3.744843,-2.89891 6.072182,-3.08148 2.215488,-0.34617 4.864587,-0.10335 6.312964,1.83301 1.57409,2.11554 2.252106,4.77512 2.457854,7.36941 0.445622,0.7644 -0.09477,2.24477 0.520626,2.57207 0.394687,-0.012 1.11896,0.5965 1.223613,0.0368 0.567045,-2.0863 0.24546,-4.32034 -0.313359,-6.37308 -1.241941,-4.12913 -5.082775,-7.60328 -9.523815,-7.59432 z M 44.76137,13.7086 c -1.127508,0.074 -2.226069,0.46589 -3.274216,0.86681 -1.495128,0.30582 -1.161232,2.35192 0.395219,1.96949 1.253368,-0.12421 2.602301,-0.60489 3.45558,-1.55023 0.682416,-0.56589 0.258453,-1.31152 -0.576583,-1.28607 z m -16.341122,3.10627 c -1.503907,0.0148 -1.704509,3.13585 -0.01391,2.9476 1.152464,-0.20397 1.084032,-2.39785 0.211891,-2.91765 z m 5.248775,1.02836 c -1.565224,0.13649 -1.012719,3.65086 0.45492,2.55866 0.606195,-0.63937 0.797941,-2.59928 -0.45492,-2.55866 z m 10.855153,4.05815 c -0.936622,-0.0907 -3.311868,0.51274 -2.108059,1.71151 1.082304,0.57627 2.648378,0.78449 3.649329,-0.0495 0.812242,-1.07132 -0.619461,-1.75983 -1.54127,-1.66204 z"
     id="path4081-6" />
</svg>
