<?xml version="1.0" encoding="UTF-8" standalone="no"?>
<svg
   xmlns:dc="http://purl.org/dc/elements/1.1/"
   xmlns:cc="http://creativecommons.org/ns#"
   xmlns:rdf="http://www.w3.org/1999/02/22-rdf-syntax-ns#"
   xmlns:svg="http://www.w3.org/2000/svg"
   xmlns="http://www.w3.org/2000/svg"
   id="svg1385"
   version="1.1"
   viewBox="0 0 47.625001 47.625001"
   height="180"
   width="180">
  <defs
     id="defs1379">
    <clipPath
       id="clipPath4655"
       clipPathUnits="userSpaceOnUse">
      <g
         id="use4657">
        <path
           style="fill:#f5f5f5;fill-opacity:1;fill-rule:evenodd;stroke:none;stroke-width:0.99999994"
           d="m -128.98947,97.953372 c -11.43189,0.408324 -23.70408,-6.429464 -26.6441,-18.009007 -2.27329,-3.72461 2.10007,-11.02979 -3.48063,-11.381458 -5.78821,-1.940616 -11.86316,-5.615661 -13.16006,-12.0702 -2.52329,-11.298894 5.87896,-23.160627 16.95935,-25.696885 14.70979,-4.773026 30.39092,-3.672796 45.61478,-3.321994 13.929717,0.969544 28.505509,3.132865 40.353069,11.034744 6.080235,4.225725 11.077625,10.972157 11.433254,18.541977 -0.21125,5.495093 -2.386283,12.041051 -8.617868,13.033287 -4.32877,1.142417 -9.064302,0.761018 -13.19801,-0.948294 -0.06847,4.3004 -1.932466,8.965422 -4.426577,12.56804 -4.390048,6.042588 -12.77184,6.258537 -19.329358,4.346999 -3.1101,-0.07198 -7.23805,-4.267518 -7.3787,0.833719 -2.04177,4.651062 -6.80106,6.786529 -10.93861,9.195585 -2.24621,1.069183 -4.70214,1.721308 -7.18654,1.873487 z m 2.06689,-7.20117 c 6.37009,-0.19427 12.40813,-4.993238 13.31592,-11.42829 2.63658,-3.903477 7.52148,1.091577 11.17305,1.375356 5.647561,2.096133 12.71424,0.632344 16.002664,-4.750279 2.832722,-3.959573 3.782368,-8.890343 3.443755,-13.678323 -0.586053,-4.886768 4.491742,-3.025527 4.597819,0.49716 5.295176,2.310211 13.618127,0.882374 15.065605,-5.531688 0.71882,-7.645431 -5.996596,-13.612881 -12.501042,-16.281527 -12.989213,-5.279131 -27.063451,-6.725142 -40.852711,-8.453516 -6.35282,-0.237154 -12.69856,0.520629 -19.05754,0.216479 -9.37761,0.313126 -20.05514,1.883977 -26.4177,9.523531 -3.76665,4.394314 -4.72147,11.718236 -0.0707,15.877201 3.29015,3.797151 8.94193,3.993009 12.84762,5.872177 -0.78642,4.307078 -1.5788,8.738476 -0.58938,13.136268 1.25328,8.433373 10.25474,12.277839 17.77125,13.237246 1.74523,0.229124 3.50819,0.43661 5.27136,0.388205 z m -8.3247,-12.208005 c -3.93143,1.294158 -9.89806,-7.268069 -4.01278,-6.238393 0.56978,3.471257 10.53366,2.421353 5.23445,6.01427 l -0.61303,0.157551 z m 18.03222,-7.148438 c -4.28646,-1.302881 -3.10184,-10.152581 1.05999,-10.757671 3.17796,1.395329 2.29968,9.909741 -1.05999,10.757671 z m -16.69189,-1.51026 c -4.5842,-1.301412 -3.80642,-8.783651 -0.4043,-11.083005 5.67129,-1.501844 4.32741,7.751867 1.7709,10.347075 l -0.65514,0.515563 z m 33.937505,-9.284175 c -3.573695,-2.127676 -6.798365,-5.17009 -10.707865,-6.907143 -9.23935,-5.185512 -20.40793,-4.688305 -30.4236,-2.410815 -2.53082,0.256697 -10.50728,4.966171 -8.68935,-0.684025 5.78606,-4.787372 13.61175,-4.961868 20.72618,-5.668719 8.23928,-0.100351 16.44001,2.552215 23.52023,6.657074 2.52342,1.782793 7.93713,5.823013 5.574405,9.013628 z"
           id="path5715" />
      </g>
    </clipPath>
    <clipPath
       id="clipPath4655-8"
       clipPathUnits="userSpaceOnUse">
      <g
         id="use4657-2" />
    </clipPath>
  </defs>
  <metadata
     id="metadata1382">
    <rdf:RDF>
      <cc:Work
         rdf:about="">
        <dc:format>image/svg+xml</dc:format>
        <dc:type
           rdf:resource="http://purl.org/dc/dcmitype/StillImage" />
        <dc:title></dc:title>
      </cc:Work>
    </rdf:RDF>
  </metadata>
  <g
     transform="translate(0,-249.37498)"
     id="layer1">
    <g
       transform="matrix(0.35277777,0,0,-0.35277777,27.500513,274.3299)"
       id="g4075">
      <path
         id="path4077"
         d="m 0,0 c -3.2538068,-3.3333583 -6.4950856,-7.7033167 -11.54431,-8.8909123 -9.174199,-2.9094437 -19.650484,-1.9384087 -27.934565,3.0475373 -7.106401,2.5503775 -1.603237,-6.083936 2.419,-5.739156 6.395305,-3.395994 13.858494,-3.581259 20.923268,-3.201475 5.674012,1.169514 12.5497756,2.400689 15.23649372,8.2815744 C -0.27299033,-4.7862165 2.4159482,-1.0728226 0,0 Z m -30.562,6.28 c -1.657138,-2.9776683 2.04082,-11.5086001 5.015625,-6.90410938 1.393641,3.20193288 -0.672942,13.25773638 -4.80257,7.40134178 z m 19.041,-6.433 c 3.4403175,1.640764 3.1314072,10.346346 -1.032453,10.437344 C -15.339233,8.1862477 -15.443793,0.67842286 -11.521,-0.153 Z m -22.515,9.272 c 0.310826,4.233476 7.584506,5.125714 6.573391,8.667359 -4.689875,1.254551 -10.450986,-4.067829 -8.002704,-8.775484 l 0.58268,-0.1932734 z m 76.467,-19.325 c -1.753499,-5.25931 -6.889032,-7.734345 -11.626922,-9.848977 -11.416775,-5.513434 -24.4650567,-3.515762 -36.44208,-6.757484 -6.735085,-1.024599 -13.584601,-1.086911 -20.342565,-1.820601 -7.639276,0.122145 -15.290118,0.668541 -22.866679,1.584789 -6.777449,1.24125 -11.418787,7.082261 -13.464248,13.349316 -1.729392,4.5204322 -2.160489,11.0073151 2.797121,13.67065427 C -54.97631,3.3672605 -49.422087,2.3652764 -44.359,1.857 c -0.07395,5.0767402 -2.91942,10.065342 -1.944377,15.493175 0.07575,9.18107 9.610568,14.704537 17.86369,15.089961 7.521223,0.579073 15.174702,-2.746855 20.1177182,-8.367355 1.478799,-3.635977 3.5070717,-12.305829 7.95195122,-5.695355 C 6.0019214,24.175042 17.399009,23.641474 22.251244,16.149299 25.399726,11.850999 23.673266,6.2031934 25.676,1.521 30.677343,1.3378639 36.877289,4.4240249 40.54325,-0.97251245 42.687423,-3.5923806 43.844116,-6.9403615 42.431,-10.206 Z m 4.69,11.058 C 44.063289,5.9619507 37.955107,9.1227138 32.015344,7.7741094 28.782199,7.4024603 30.858625,13.919576 28.792672,16.346395 27.923034,21.070318 25.054756,25.249618 20.755836,27.498574 15.991802,30.399677 10.158089,31.822843 4.7888003,29.613283 0.9361254,28.148651 -2.965388,24.419292 -4.9598477,29.836732 -12.281778,39.773313 -26.301393,41.729628 -37.561894,38.591763 -47.043317,35.489549 -52.241974,24.946511 -52.430268,15.467962 -52.951404,12.428788 -49.131677,7.0450581 -54.47523,7.9093516 -60.608,7.1864859 -66.365381,3.3479644 -68.891013,-2.3837769 -72.6954,-13.452135 -65.085658,-25.405825 -55.053211,-30.053426 c 9.0183,-4.320011 19.286622,-3.03532 28.978168,-3.41547 12.795556,0.0029 25.67678306,0.495752 38.204439,3.301962 5.60747,0.879743 11.89093,-0.32213 16.753625,3.261464 4.903701,1.831377 9.594769,4.205143 13.336167,7.961329 5.065147,4.655038 9.285493,13.3499408 4.901812,19.796141 z"
         style="fill:#f5f5f5;fill-opacity:1;fill-rule:evenodd;stroke:none" />
    </g>
  </g>
</svg>
