<?xml version="1.0" encoding="UTF-8" standalone="no"?>
<svg
   xmlns:dc="http://purl.org/dc/elements/1.1/"
   xmlns:cc="http://creativecommons.org/ns#"
   xmlns:rdf="http://www.w3.org/1999/02/22-rdf-syntax-ns#"
   xmlns:svg="http://www.w3.org/2000/svg"
   xmlns="http://www.w3.org/2000/svg"
   id="svg1385"
   version="1.1"
   viewBox="0 0 47.625001 47.625001"
   height="180"
   width="180">
  <defs
     id="defs1379">
    <clipPath
       id="clipPath4655"
       clipPathUnits="userSpaceOnUse">
      <g
         id="use4657">
        <path
           style="fill:#f5f5f5;fill-opacity:1;fill-rule:evenodd;stroke:none;stroke-width:0.99999994"
           d="m -128.98947,97.953372 c -11.43189,0.408324 -23.70408,-6.429464 -26.6441,-18.009007 -2.27329,-3.72461 2.10007,-11.02979 -3.48063,-11.381458 -5.78821,-1.940616 -11.86316,-5.615661 -13.16006,-12.0702 -2.52329,-11.298894 5.87896,-23.160627 16.95935,-25.696885 14.70979,-4.773026 30.39092,-3.672796 45.61478,-3.321994 13.929717,0.969544 28.505509,3.132865 40.353069,11.034744 6.080235,4.225725 11.077625,10.972157 11.433254,18.541977 -0.21125,5.495093 -2.386283,12.041051 -8.617868,13.033287 -4.32877,1.142417 -9.064302,0.761018 -13.19801,-0.948294 -0.06847,4.3004 -1.932466,8.965422 -4.426577,12.56804 -4.390048,6.042588 -12.77184,6.258537 -19.329358,4.346999 -3.1101,-0.07198 -7.23805,-4.267518 -7.3787,0.833719 -2.04177,4.651062 -6.80106,6.786529 -10.93861,9.195585 -2.24621,1.069183 -4.70214,1.721308 -7.18654,1.873487 z m 2.06689,-7.20117 c 6.37009,-0.19427 12.40813,-4.993238 13.31592,-11.42829 2.63658,-3.903477 7.52148,1.091577 11.17305,1.375356 5.647561,2.096133 12.71424,0.632344 16.002664,-4.750279 2.832722,-3.959573 3.782368,-8.890343 3.443755,-13.678323 -0.586053,-4.886768 4.491742,-3.025527 4.597819,0.49716 5.295176,2.310211 13.618127,0.882374 15.065605,-5.531688 0.71882,-7.645431 -5.996596,-13.612881 -12.501042,-16.281527 -12.989213,-5.279131 -27.063451,-6.725142 -40.852711,-8.453516 -6.35282,-0.237154 -12.69856,0.520629 -19.05754,0.216479 -9.37761,0.313126 -20.05514,1.883977 -26.4177,9.523531 -3.76665,4.394314 -4.72147,11.718236 -0.0707,15.877201 3.29015,3.797151 8.94193,3.993009 12.84762,5.872177 -0.78642,4.307078 -1.5788,8.738476 -0.58938,13.136268 1.25328,8.433373 10.25474,12.277839 17.77125,13.237246 1.74523,0.229124 3.50819,0.43661 5.27136,0.388205 z m -8.3247,-12.208005 c -3.93143,1.294158 -9.89806,-7.268069 -4.01278,-6.238393 0.56978,3.471257 10.53366,2.421353 5.23445,6.01427 l -0.61303,0.157551 z m 18.03222,-7.148438 c -4.28646,-1.302881 -3.10184,-10.152581 1.05999,-10.757671 3.17796,1.395329 2.29968,9.909741 -1.05999,10.757671 z m -16.69189,-1.51026 c -4.5842,-1.301412 -3.80642,-8.783651 -0.4043,-11.083005 5.67129,-1.501844 4.32741,7.751867 1.7709,10.347075 l -0.65514,0.515563 z m 33.937505,-9.284175 c -3.573695,-2.127676 -6.798365,-5.17009 -10.707865,-6.907143 -9.23935,-5.185512 -20.40793,-4.688305 -30.4236,-2.410815 -2.53082,0.256697 -10.50728,4.966171 -8.68935,-0.684025 5.78606,-4.787372 13.61175,-4.961868 20.72618,-5.668719 8.23928,-0.100351 16.44001,2.552215 23.52023,6.657074 2.52342,1.782793 7.93713,5.823013 5.574405,9.013628 z"
           id="path5715" />
      </g>
    </clipPath>
    <clipPath
       id="clipPath4655-8"
       clipPathUnits="userSpaceOnUse">
      <g
         id="use4657-2" />
    </clipPath>
  </defs>
  <metadata
     id="metadata1382">
    <rdf:RDF>
      <cc:Work
         rdf:about="">
        <dc:format>image/svg+xml</dc:format>
        <dc:type
           rdf:resource="http://purl.org/dc/dcmitype/StillImage" />
        <dc:title></dc:title>
      </cc:Work>
    </rdf:RDF>
  </metadata>
  <g
     transform="translate(0,-249.37498)"
     id="layer1">
    <g
       transform="matrix(0.35277777,0,0,-0.35277777,27.500513,274.3299)"
       id="g4075" />
    <g
       transform="matrix(0.35277777,0,0,-0.35277777,26.84232,275.54009)"
       id="g4071">
      <path
         id="path4073"
         d="m 0,0 c -4.9724849,-0.54546987 -6.8805248,-6.3191042 -11.496766,-7.7572656 -5.834623,-2.7630124 -12.230179,-4.5711454 -18.725654,-3.9071814 -4.673265,-0.211877 -9.30682,0.539395 -13.598502,2.4209783 -4.929432,2.5930734 -5.905057,-2.5832223 -0.988359,-3.7600003 10.96217,-4.419011 23.844841,-4.503224 34.51214,0.875631 4.4543724,2.5722435 11.3521547,5.7250253 11.27596913,11.64032237 l -0.36452149,0.34874024 z m -38.869,-3.931 c 1.625132,2.3898551 1.03438,9.5340846 6.015625,6.400875 0.343744,-2.02640441 2.506351,-8.3958548 4.088828,-3.5360469 1.207672,6.2948407 -7.965037,10.5464516 -11.174,4.4900625 C -41.16094,1.4085581 -42.607654,-3.7533325 -38.869,-3.931 Z m 17.76,3.686 c 0.792502,1.8756722 3.959635,9.9121607 5.669809,4.0682207 -0.887275,-3.41653137 3.814575,-6.0936048 3.376894,-1.2752402 0.997171,5.865657 -7.103285,9.6276165 -9.717969,3.6018632 C -22.942315,4.4001569 -24.236925,0.2297198 -21.109,-0.245 Z m 14.121,30.473 c -2.9258145,-2.987326 2.4870524,-8.988844 3.232,-3.493 0.4308505,1.719247 -1.0690576,5.696075 -3.232,3.493 z m 8.98,1.336 C -3.9289893,31.439431 2.7942052,19.489169 3.4990469,27.731687 3.2816776,29.066293 2.9563257,30.555193 1.992,31.564 Z M 47.136,8.11 C 44.410398,3.6277604 39.207417,1.2924155 34.178953,3.4283281 31.458532,2.7945009 30.430201,-5.36882 27.97025,0.442375 24.957669,3.6705864 21.966238,8.2341721 16.938562,7.7972656 12.806009,7.9497373 8.7273405,6.3068417 7.3399512,11.42758 c -3.4730457,3.888233 5.3745708,3.882514 6.0372208,8.066623 0.530538,0.686938 2.06972,-4.685109 3.050312,-1.050172 0.634755,2.909823 -4.447799,8.114551 -5.808218,4.414906 2.960305,-2.56362 -4.0221863,-6.538937 -6.6257972,-6.642953 -4.34102952,2.588199 -9.4975353,4.858503 -14.5264998,2.316625 -4.36566,-1.413682 -4.836809,7.038998 -9.008641,8.80575 -3.162201,1.747829 -6.757892,4.235458 -2.298797,7.153563 4.820468,3.812673 10.385764,7.580474 16.8410627,7.092109 5.78085842,0.536062 12.1970167,-1.164776 15.4831583,-6.302133 1.565091,-2.499964 6.020229,-10.112045 7.101717,-3.461461 3.231974,5.311115 10.11639,7.789487 15.976221,5.576569 C 40.211611,35.658725 44.22639,28.458994 43.846,21.925 39.039552,18.187903 48.355007,18.434337 48.478078,14.316937 49.448751,12.185715 48.658242,9.7564572 47.136,8.11 Z M 12.493,-24.975 c -7.1425363,-2.63342 -14.9182082,-1.236006 -22.3121304,-2.517155 -8.6465726,-0.615613 -17.2882016,1.025592 -25.9530826,0.429745 -6.464065,-0.0911 -13.08669,1.052296 -18.960787,3.767035 -6.134417,3.605204 -7.583429,11.472998 -7.357347,18.0252888 0.350647,3.8980593 4.837619,11.0492648 8.249609,5.43207448 3.284545,3.49214672 -0.631087,11.64893872 3.446967,16.11106872 4.29129,6.482523 11.437269,12.224276 19.648294,11.536536 7.026758,-0.02898 11.063184,-6.246792 13.379727,-12.079593 0.451246,-3.930677 5.619302,-7.1890646 5.965264,-1.507434 4.7942806,2.552169 11.46478833,1.585316 14.6452028,-3.119402 C 6.423877,7.544017 6.8635863,-1.5038298 13.620986,2.260509 19.755441,4.7451224 25.509996,-0.95357352 27.094604,-6.4998325 29.102789,-11.067028 26.786481,-16.122543 22.977021,-18.919085 19.863191,-21.518715 16.244717,-23.465069 12.493,-24.975 Z M 52.186,15.452 C 50.735231,19.922571 45.271464,21.233267 46.657518,26.71096 45.590279,34.877412 38.90453,41.95228 30.58523,42.780054 24.905953,43.380313 17.977728,43.178963 13.964,38.504 9.5441832,43.875157 2.7794651,46.704913 -4.142543,46.618523 -12.7592,46.718624 -22.431183,44.113404 -27.79527,36.944834 -28.506821,31.567637 -34.145991,33.347678 -37.875873,31.727844 -46.99377,29.048709 -56.184915,22.620678 -57.729,12.604 -59.572269,8.069144 -66.884139,6.5136695 -68.121047,0.61285937 -72.412044,-8.737924 -67.231064,-19.476972 -60.463,-26.131 c 7.924035,-5.802487 18.181848,-5.664091 27.503,-7.065 7.796171,-0.410041 15.588756,0.767879 23.4014277,0.481023 10.2704684,-0.384442 20.5868183,1.201236 30.3567583,4.329176 6.94447,2.471746 10.734694,10.016721 11.387095,16.965383 -0.35114,3.1638584 -2.275344,6.0888965 1.962377,7.1962754 1.542713,4.95485174 6.346045,1.239166 9.774358,3.1582988 C 50.011773,1.7416312 53.651368,8.8705644 52.186,15.452 Z"
         style="fill:#a9a9a9;fill-opacity:1;fill-rule:evenodd;stroke:none" />
    </g>
  </g>
</svg>
