<?xml version="1.0" encoding="UTF-8" standalone="no"?>
<svg
   xmlns:dc="http://purl.org/dc/elements/1.1/"
   xmlns:cc="http://creativecommons.org/ns#"
   xmlns:rdf="http://www.w3.org/1999/02/22-rdf-syntax-ns#"
   xmlns:svg="http://www.w3.org/2000/svg"
   xmlns="http://www.w3.org/2000/svg"
   id="svg1385"
   version="1.1"
   viewBox="0 0 47.625001 47.625001"
   height="180"
   width="180">
  <defs
     id="defs1379">
    <clipPath
       id="clipPath4655"
       clipPathUnits="userSpaceOnUse">
      <g
         id="use4657">
        <path
           style="fill:#f5f5f5;fill-opacity:1;fill-rule:evenodd;stroke:none;stroke-width:0.99999994"
           d="m -128.98947,97.953372 c -11.43189,0.408324 -23.70408,-6.429464 -26.6441,-18.009007 -2.27329,-3.72461 2.10007,-11.02979 -3.48063,-11.381458 -5.78821,-1.940616 -11.86316,-5.615661 -13.16006,-12.0702 -2.52329,-11.298894 5.87896,-23.160627 16.95935,-25.696885 14.70979,-4.773026 30.39092,-3.672796 45.61478,-3.321994 13.929717,0.969544 28.505509,3.132865 40.353069,11.034744 6.080235,4.225725 11.077625,10.972157 11.433254,18.541977 -0.21125,5.495093 -2.386283,12.041051 -8.617868,13.033287 -4.32877,1.142417 -9.064302,0.761018 -13.19801,-0.948294 -0.06847,4.3004 -1.932466,8.965422 -4.426577,12.56804 -4.390048,6.042588 -12.77184,6.258537 -19.329358,4.346999 -3.1101,-0.07198 -7.23805,-4.267518 -7.3787,0.833719 -2.04177,4.651062 -6.80106,6.786529 -10.93861,9.195585 -2.24621,1.069183 -4.70214,1.721308 -7.18654,1.873487 z m 2.06689,-7.20117 c 6.37009,-0.19427 12.40813,-4.993238 13.31592,-11.42829 2.63658,-3.903477 7.52148,1.091577 11.17305,1.375356 5.647561,2.096133 12.71424,0.632344 16.002664,-4.750279 2.832722,-3.959573 3.782368,-8.890343 3.443755,-13.678323 -0.586053,-4.886768 4.491742,-3.025527 4.597819,0.49716 5.295176,2.310211 13.618127,0.882374 15.065605,-5.531688 0.71882,-7.645431 -5.996596,-13.612881 -12.501042,-16.281527 -12.989213,-5.279131 -27.063451,-6.725142 -40.852711,-8.453516 -6.35282,-0.237154 -12.69856,0.520629 -19.05754,0.216479 -9.37761,0.313126 -20.05514,1.883977 -26.4177,9.523531 -3.76665,4.394314 -4.72147,11.718236 -0.0707,15.877201 3.29015,3.797151 8.94193,3.993009 12.84762,5.872177 -0.78642,4.307078 -1.5788,8.738476 -0.58938,13.136268 1.25328,8.433373 10.25474,12.277839 17.77125,13.237246 1.74523,0.229124 3.50819,0.43661 5.27136,0.388205 z m -8.3247,-12.208005 c -3.93143,1.294158 -9.89806,-7.268069 -4.01278,-6.238393 0.56978,3.471257 10.53366,2.421353 5.23445,6.01427 l -0.61303,0.157551 z m 18.03222,-7.148438 c -4.28646,-1.302881 -3.10184,-10.152581 1.05999,-10.757671 3.17796,1.395329 2.29968,9.909741 -1.05999,10.757671 z m -16.69189,-1.51026 c -4.5842,-1.301412 -3.80642,-8.783651 -0.4043,-11.083005 5.67129,-1.501844 4.32741,7.751867 1.7709,10.347075 l -0.65514,0.515563 z m 33.937505,-9.284175 c -3.573695,-2.127676 -6.798365,-5.17009 -10.707865,-6.907143 -9.23935,-5.185512 -20.40793,-4.688305 -30.4236,-2.410815 -2.53082,0.256697 -10.50728,4.966171 -8.68935,-0.684025 5.78606,-4.787372 13.61175,-4.961868 20.72618,-5.668719 8.23928,-0.100351 16.44001,2.552215 23.52023,6.657074 2.52342,1.782793 7.93713,5.823013 5.574405,9.013628 z"
           id="path5715" />
      </g>
    </clipPath>
    <clipPath
       id="clipPath4655-8"
       clipPathUnits="userSpaceOnUse">
      <g
         id="use4657-2" />
    </clipPath>
    <clipPath
       id="clipPath4655-0"
       clipPathUnits="userSpaceOnUse">
      <g
         id="use4657-4">
        <path
           style="fill:#f5f5f5;fill-opacity:1;fill-rule:evenodd;stroke:none;stroke-width:0.99999994"
           d="m -128.98947,97.953372 c -11.43189,0.408324 -23.70408,-6.429464 -26.6441,-18.009007 -2.27329,-3.72461 2.10007,-11.02979 -3.48063,-11.381458 -5.78821,-1.940616 -11.86316,-5.615661 -13.16006,-12.0702 -2.52329,-11.298894 5.87896,-23.160627 16.95935,-25.696885 14.70979,-4.773026 30.39092,-3.672796 45.61478,-3.321994 13.929717,0.969544 28.505509,3.132865 40.353069,11.034744 6.080235,4.225725 11.077625,10.972157 11.433254,18.541977 -0.21125,5.495093 -2.386283,12.041051 -8.617868,13.033287 -4.32877,1.142417 -9.064302,0.761018 -13.19801,-0.948294 -0.06847,4.3004 -1.932466,8.965422 -4.426577,12.56804 -4.390048,6.042588 -12.77184,6.258537 -19.329358,4.346999 -3.1101,-0.07198 -7.23805,-4.267518 -7.3787,0.833719 -2.04177,4.651062 -6.80106,6.786529 -10.93861,9.195585 -2.24621,1.069183 -4.70214,1.721308 -7.18654,1.873487 z m 2.06689,-7.20117 c 6.37009,-0.19427 12.40813,-4.993238 13.31592,-11.42829 2.63658,-3.903477 7.52148,1.091577 11.17305,1.375356 5.647561,2.096133 12.71424,0.632344 16.002664,-4.750279 2.832722,-3.959573 3.782368,-8.890343 3.443755,-13.678323 -0.586053,-4.886768 4.491742,-3.025527 4.597819,0.49716 5.295176,2.310211 13.618127,0.882374 15.065605,-5.531688 0.71882,-7.645431 -5.996596,-13.612881 -12.501042,-16.281527 -12.989213,-5.279131 -27.063451,-6.725142 -40.852711,-8.453516 -6.35282,-0.237154 -12.69856,0.520629 -19.05754,0.216479 -9.37761,0.313126 -20.05514,1.883977 -26.4177,9.523531 -3.76665,4.394314 -4.72147,11.718236 -0.0707,15.877201 3.29015,3.797151 8.94193,3.993009 12.84762,5.872177 -0.78642,4.307078 -1.5788,8.738476 -0.58938,13.136268 1.25328,8.433373 10.25474,12.277839 17.77125,13.237246 1.74523,0.229124 3.50819,0.43661 5.27136,0.388205 z m -8.3247,-12.208005 c -3.93143,1.294158 -9.89806,-7.268069 -4.01278,-6.238393 0.56978,3.471257 10.53366,2.421353 5.23445,6.01427 l -0.61303,0.157551 z m 18.03222,-7.148438 c -4.28646,-1.302881 -3.10184,-10.152581 1.05999,-10.757671 3.17796,1.395329 2.29968,9.909741 -1.05999,10.757671 z m -16.69189,-1.51026 c -4.5842,-1.301412 -3.80642,-8.783651 -0.4043,-11.083005 5.67129,-1.501844 4.32741,7.751867 1.7709,10.347075 l -0.65514,0.515563 z m 33.937505,-9.284175 c -3.573695,-2.127676 -6.798365,-5.17009 -10.707865,-6.907143 -9.23935,-5.185512 -20.40793,-4.688305 -30.4236,-2.410815 -2.53082,0.256697 -10.50728,4.966171 -8.68935,-0.684025 5.78606,-4.787372 13.61175,-4.961868 20.72618,-5.668719 8.23928,-0.100351 16.44001,2.552215 23.52023,6.657074 2.52342,1.782793 7.93713,5.823013 5.574405,9.013628 z"
           id="path5715-2" />
      </g>
    </clipPath>
    <clipPath
       id="clipPath4655-8-2"
       clipPathUnits="userSpaceOnUse">
      <g
         id="use4657-2-6" />
    </clipPath>
  </defs>
  <metadata
     id="metadata1382">
    <rdf:RDF>
      <cc:Work
         rdf:about="">
        <dc:format>image/svg+xml</dc:format>
        <dc:type
           rdf:resource="http://purl.org/dc/dcmitype/StillImage" />
        <dc:title></dc:title>
      </cc:Work>
    </rdf:RDF>
  </metadata>
  <g
     transform="translate(0,-249.37498)"
     id="layer1">
    <g
       transform="matrix(0.35277777,0,0,-0.35277777,27.500513,274.3299)"
       id="g4075" />
    <g
       id="g1318"
       transform="matrix(0.35277777,0,0,-0.35277777,-376.31832,906.98647)">
      <g
         id="g4019"
         transform="translate(1121.0919,1759.4227)">
        <path
           id="path4021"
           d="m -11.819895,69.024614 c -6.433726,-0.025 -12.821251,-2.991487 -16.533901,-8.339691 -4.67505,-5.081963 -3.8184,-12.439628 -2.98365,-18.721831 -4.824525,0.22566 -9.88125,-1.628947 -12.459225,-5.919412 -3.8721,-5.50008 -2.274075,-12.953168 0.5715,-18.529388 1.894875,-4.062045 6.020175,-6.21417 9.752475,-8.251643 4.447875,-1.250385 8.96775,-2.417655 13.60935,-2.57007 5.399026,-1.4314651 10.7370007,0.3377475 16.0268258,1.15482 C 3.68448,7.3982015 11.16138,8.291534 18.614505,9.1594265 c 4.131976,0.38877 8.212201,1.1668275 12.337726,1.6002375 6.398775,1.625723 13.395,3.836003 17.564175,9.283493 3.166575,5.027452 5.1771,12.013523 1.42005,17.292488 -1.0473,1.546365 -1.253475,3.975982 -3.42675,4.349085 -3.05325,2.192542 -8.399175,-1.46748 -7.5882,4.01157 -1.6794,6.437543 -6.6111,11.614185 -12.21015,14.899215 -2.98905,1.16238 -6.013276,2.605605 -9.320776,1.868063 C 13.54053,62.17668 9.9145052,60.6006 6.8259301,58.350803 3.984405,60.245528 2.86488,65.73172 -1.4451451,66.91614 c -3.1935001,1.603346 -6.8272502,2.176897 -10.3747499,2.108474 z m 4.5175497,-6.427731 c 5.6157752,0.16488 9.0833252,-5.464403 9.7935003,-10.429328 1.356,-5.871585 4.6896001,1.708478 7.1631752,2.672415 4.2186748,3.076313 9.9148498,3.806858 14.6936258,1.620533 4.583475,-1.713878 8.64,-5.355143 9.499275,-10.339875 1.681875,-3.458581 -0.434325,-8.344276 1.7865,-11.018588 3.345525,0.91572 7.779,5.3421 10.27305,0.40494 2.448,-3.802305 1.73385,-9.216286 -1.3869,-12.430561 -2.58555,-2.57226 -5.8635,-4.784857 -9.47085,-5.600955 -7.0746,-1.350195 -14.280151,-1.54065 -21.427876,-2.225227 -12.4971001,-1.769933 -25.23675,-3.478568 -37.814176,-1.4223 -5.00265,0.61479 -10.871625,1.950052 -13.2507,6.955275 -2.434725,3.77673 -2.0802,9.486045 2.0295,11.948603 3.222225,2.691862 7.66575,2.629027 11.228925,0.750705 4.5675,1.355805 -2.024025,6.334192 -1.3212,9.65244 -0.9738,4.835325 0.678,9.828893 4.6701,12.828428 3.84675,3.198397 8.378251,6.346687 13.5340507,6.633495 z"
           style="fill:#a9a9a9;fill-opacity:1;fill-rule:evenodd;stroke:none;stroke-width:0.99999994" />
      </g>
      <path
         id="path4021-2"
         d="m 1163.8247,1848.0526 c -2.9149,-1.1371 -2.4209,-5.208 -2.2461,-7.8 2.0326,-4.3618 4.5385,1.728 4.1027,4.1434 -0.029,1.3024 -0.1207,3.5618 -1.8566,3.6566 z m -19.6391,-5.3408 c -3.4036,-0.8799 -0.7329,-5.1833 0.6132,-6.9104 1.1716,-2.6084 5.4256,-2.961 4.4012,0.7898 -0.8168,2.4186 -2.3485,5.4455 -5.0144,6.1206 z m 39.8951,-3.7339 c -2.9791,-0.4707 -6.3254,-2.5625 -6.8417,-5.7264 1.296,-3.5893 6.0605,-0.6167 7.6519,1.4744 1.4082,1.2484 1.9551,4.4555 -0.8102,4.252 z m -20.3848,-5.7554 c -6.6224,-0.09 -13.1091,-2.9474 -17.5665,-7.8664 -1.0978,-1.5754 -4.5688,-3.886 -1.2104,-4.2405 1.1084,-0.4045 2.6047,-1.0246 3.4824,-1.3009 0.8008,3.6261 4.87,5.1974 7.9626,6.5233 4.4555,1.8129 9.7619,2.6075 14.1064,0.029 3.154,-1.4784 4.5998,-4.8566 5.1644,-8.0974 1.8618,-5.8839 -0.8109,-12.4309 -4.9948,-16.6459 -2.3058,-0.8323 -0.8382,-2.3704 -0.1592,-3.7915 0.8185,-2.3283 3.9315,1.1567 5.2608,2.0067 6.0551,7.0128 7.0512,17.8555 2.5561,25.9188 -2.9214,5.1065 -8.8891,7.6947 -14.6018,7.4646 z m -28.9029,-3.9258 c -2.4828,0.6173 -6.1484,-3.0969 -2.8085,-4.5563 2.4812,-0.1266 6.1577,-1.3346 7.8726,0.7847 -0.078,2.5239 -2.8236,3.8465 -5.0641,3.7716 z m 55.3272,-6.2798 c -2.6099,0.3453 -8.4094,-0.9998 -4.7473,-4.1923 2.4528,-1.4671 7.5348,-0.8863 8.0871,2.3364 -0.1457,1.5757 -2.1113,1.7972 -3.3398,1.8559 z m -5.8096,-18.5522 c -3.39,-1.1101 -0.315,-5.1445 1.9322,-5.792 1.8983,-1.2196 8.0324,-1.4345 4.8689,1.936 -1.7802,1.9283 -4.2855,3.221 -6.8011,3.856 z m -7.3111,-11.4902 c -3.6288,-1.6356 0.02,-7.1445 2.4707,-8.5539 4.1055,0.011 -0.044,5.1017 -0.2944,7.316 -0.2331,1.0176 -1.2517,1.3176 -2.1763,1.2379 z"
         style="fill:#ffa500;fill-opacity:1;fill-rule:evenodd;stroke:none;stroke-width:0.99999994" />
      <path
         id="path4021-7"
         d="m 1142.6953,1768.8794 c -2.2329,-0.2231 -4.4658,-0.4463 -6.6987,-0.6694 -0.7845,-3.1339 -1.6898,-6.7052 -0.086,-9.7332 1.2185,-1.6835 4.0821,-2.2441 5.8026,-1.0946 2.3307,1.8669 2.4908,5.2149 2.2572,7.9593 0.2383,1.3733 -1.6756,2.5051 -1.2747,3.5379 z m -2.6382,-1.8222 c 1.6756,-1.02 1.5124,-3.5215 1.2831,-5.2488 0.1034,-1.8674 -2.5092,-2.6208 -2.5507,-0.3526 0.1069,1.8184 -0.5348,4.2917 1.0643,5.5845 l 0.2033,0.016 z m -37.9042,-3.2036 c -2.2693,-2.0706 -4.8903,-4.4246 -4.9959,-7.7343 -0.2886,-3.2717 2.339,-6.9584 5.8319,-6.7214 2.2957,0.2991 3.2171,2.8756 3.5527,4.8589 0.3531,3.179 -1.1602,6.269 -2.9811,8.7714 -0.3661,0.4024 -0.8307,0.8171 -1.4076,0.8254 z m 19.1001,-4.3565 c -1.1352,-0.4087 -2.384,-1.4711 -3.0545,-2.6419 -1.3596,-2.3542 -2.1351,-5.1248 -2.0324,-7.849 0.1114,-2.7953 3.2829,-4.4078 5.7892,-3.7023 2.0101,0.4739 4.0482,2.1783 3.8484,4.4165 0.1112,3.1915 -1.5828,6.0693 -3.1407,8.7225 -0.3532,0.4563 -0.7792,1.0221 -1.41,1.0542 z m -19.4971,-0.3325 c 1.3861,-1.0364 1.2268,-3.1169 1.427,-4.6966 0.5236,-1.8356 -1.5906,-1.9261 -1.8084,-0.2525 -0.5291,1.6139 -0.3594,3.4546 0.3814,4.9491 z m 19.2832,-5.8652 c 1.4364,-0.7682 1.714,-4.0875 -0.143,-4.6892 -2.2633,-0.3208 -1.418,2.8155 -0.6914,3.9574 0.1954,0.3124 0.4505,0.6531 0.8344,0.7318 z"
         style="fill:#5baaff;fill-opacity:1;fill-rule:evenodd;stroke:none;stroke-width:0.99999994" />
    </g>
  </g>
</svg>
