<?xml version="1.0" encoding="UTF-8" standalone="no"?>
<svg
   xmlns:dc="http://purl.org/dc/elements/1.1/"
   xmlns:cc="http://creativecommons.org/ns#"
   xmlns:rdf="http://www.w3.org/1999/02/22-rdf-syntax-ns#"
   xmlns:svg="http://www.w3.org/2000/svg"
   xmlns="http://www.w3.org/2000/svg"
   xmlns:sodipodi="http://sodipodi.sourceforge.net/DTD/sodipodi-0.dtd"
   xmlns:inkscape="http://www.inkscape.org/namespaces/inkscape"
   id="svg1385"
   version="1.1"
   viewBox="0 0 47.625001 47.625001"
   height="180"
   width="180"
   sodipodi:docname="09n-r2.svg"
   inkscape:version="0.92.3 (2405546, 2018-03-11)">
  <sodipodi:namedview
     pagecolor="#ffffff"
     bordercolor="#666666"
     borderopacity="1"
     objecttolerance="10"
     gridtolerance="10"
     guidetolerance="10"
     inkscape:pageopacity="0"
     inkscape:pageshadow="2"
     inkscape:window-width="958"
     inkscape:window-height="1008"
     id="namedview4598"
     showgrid="false"
     inkscape:zoom="3.7083822"
     inkscape:cx="93.001438"
     inkscape:cy="60.872235"
     inkscape:window-x="953"
     inkscape:window-y="0"
     inkscape:window-maximized="0"
     inkscape:current-layer="g1346" />
  <defs
     id="defs1379">
    <clipPath
       id="clipPath4655"
       clipPathUnits="userSpaceOnUse">
      <g
         id="use4657">
        <path
           style="fill:#f5f5f5;fill-opacity:1;fill-rule:evenodd;stroke:none;stroke-width:0.99999994"
           d="m -128.98947,97.953372 c -11.43189,0.408324 -23.70408,-6.429464 -26.6441,-18.009007 -2.27329,-3.72461 2.10007,-11.02979 -3.48063,-11.381458 -5.78821,-1.940616 -11.86316,-5.615661 -13.16006,-12.0702 -2.52329,-11.298894 5.87896,-23.160627 16.95935,-25.696885 14.70979,-4.773026 30.39092,-3.672796 45.61478,-3.321994 13.929717,0.969544 28.505509,3.132865 40.353069,11.034744 6.080235,4.225725 11.077625,10.972157 11.433254,18.541977 -0.21125,5.495093 -2.386283,12.041051 -8.617868,13.033287 -4.32877,1.142417 -9.064302,0.761018 -13.19801,-0.948294 -0.06847,4.3004 -1.932466,8.965422 -4.426577,12.56804 -4.390048,6.042588 -12.77184,6.258537 -19.329358,4.346999 -3.1101,-0.07198 -7.23805,-4.267518 -7.3787,0.833719 -2.04177,4.651062 -6.80106,6.786529 -10.93861,9.195585 -2.24621,1.069183 -4.70214,1.721308 -7.18654,1.873487 z m 2.06689,-7.20117 c 6.37009,-0.19427 12.40813,-4.993238 13.31592,-11.42829 2.63658,-3.903477 7.52148,1.091577 11.17305,1.375356 5.647561,2.096133 12.71424,0.632344 16.002664,-4.750279 2.832722,-3.959573 3.782368,-8.890343 3.443755,-13.678323 -0.586053,-4.886768 4.491742,-3.025527 4.597819,0.49716 5.295176,2.310211 13.618127,0.882374 15.065605,-5.531688 0.71882,-7.645431 -5.996596,-13.612881 -12.501042,-16.281527 -12.989213,-5.279131 -27.063451,-6.725142 -40.852711,-8.453516 -6.35282,-0.237154 -12.69856,0.520629 -19.05754,0.216479 -9.37761,0.313126 -20.05514,1.883977 -26.4177,9.523531 -3.76665,4.394314 -4.72147,11.718236 -0.0707,15.877201 3.29015,3.797151 8.94193,3.993009 12.84762,5.872177 -0.78642,4.307078 -1.5788,8.738476 -0.58938,13.136268 1.25328,8.433373 10.25474,12.277839 17.77125,13.237246 1.74523,0.229124 3.50819,0.43661 5.27136,0.388205 z m -8.3247,-12.208005 c -3.93143,1.294158 -9.89806,-7.268069 -4.01278,-6.238393 0.56978,3.471257 10.53366,2.421353 5.23445,6.01427 l -0.61303,0.157551 z m 18.03222,-7.148438 c -4.28646,-1.302881 -3.10184,-10.152581 1.05999,-10.757671 3.17796,1.395329 2.29968,9.909741 -1.05999,10.757671 z m -16.69189,-1.51026 c -4.5842,-1.301412 -3.80642,-8.783651 -0.4043,-11.083005 5.67129,-1.501844 4.32741,7.751867 1.7709,10.347075 l -0.65514,0.515563 z m 33.937505,-9.284175 c -3.573695,-2.127676 -6.798365,-5.17009 -10.707865,-6.907143 -9.23935,-5.185512 -20.40793,-4.688305 -30.4236,-2.410815 -2.53082,0.256697 -10.50728,4.966171 -8.68935,-0.684025 5.78606,-4.787372 13.61175,-4.961868 20.72618,-5.668719 8.23928,-0.100351 16.44001,2.552215 23.52023,6.657074 2.52342,1.782793 7.93713,5.823013 5.574405,9.013628 z"
           id="path5715" />
      </g>
    </clipPath>
    <clipPath
       id="clipPath4655-8"
       clipPathUnits="userSpaceOnUse">
      <g
         id="use4657-2" />
    </clipPath>
    <clipPath
       id="clipPath4655-0"
       clipPathUnits="userSpaceOnUse">
      <g
         id="use4657-4">
        <path
           style="fill:#f5f5f5;fill-opacity:1;fill-rule:evenodd;stroke:none;stroke-width:0.99999994"
           d="m -128.98947,97.953372 c -11.43189,0.408324 -23.70408,-6.429464 -26.6441,-18.009007 -2.27329,-3.72461 2.10007,-11.02979 -3.48063,-11.381458 -5.78821,-1.940616 -11.86316,-5.615661 -13.16006,-12.0702 -2.52329,-11.298894 5.87896,-23.160627 16.95935,-25.696885 14.70979,-4.773026 30.39092,-3.672796 45.61478,-3.321994 13.929717,0.969544 28.505509,3.132865 40.353069,11.034744 6.080235,4.225725 11.077625,10.972157 11.433254,18.541977 -0.21125,5.495093 -2.386283,12.041051 -8.617868,13.033287 -4.32877,1.142417 -9.064302,0.761018 -13.19801,-0.948294 -0.06847,4.3004 -1.932466,8.965422 -4.426577,12.56804 -4.390048,6.042588 -12.77184,6.258537 -19.329358,4.346999 -3.1101,-0.07198 -7.23805,-4.267518 -7.3787,0.833719 -2.04177,4.651062 -6.80106,6.786529 -10.93861,9.195585 -2.24621,1.069183 -4.70214,1.721308 -7.18654,1.873487 z m 2.06689,-7.20117 c 6.37009,-0.19427 12.40813,-4.993238 13.31592,-11.42829 2.63658,-3.903477 7.52148,1.091577 11.17305,1.375356 5.647561,2.096133 12.71424,0.632344 16.002664,-4.750279 2.832722,-3.959573 3.782368,-8.890343 3.443755,-13.678323 -0.586053,-4.886768 4.491742,-3.025527 4.597819,0.49716 5.295176,2.310211 13.618127,0.882374 15.065605,-5.531688 0.71882,-7.645431 -5.996596,-13.612881 -12.501042,-16.281527 -12.989213,-5.279131 -27.063451,-6.725142 -40.852711,-8.453516 -6.35282,-0.237154 -12.69856,0.520629 -19.05754,0.216479 -9.37761,0.313126 -20.05514,1.883977 -26.4177,9.523531 -3.76665,4.394314 -4.72147,11.718236 -0.0707,15.877201 3.29015,3.797151 8.94193,3.993009 12.84762,5.872177 -0.78642,4.307078 -1.5788,8.738476 -0.58938,13.136268 1.25328,8.433373 10.25474,12.277839 17.77125,13.237246 1.74523,0.229124 3.50819,0.43661 5.27136,0.388205 z m -8.3247,-12.208005 c -3.93143,1.294158 -9.89806,-7.268069 -4.01278,-6.238393 0.56978,3.471257 10.53366,2.421353 5.23445,6.01427 l -0.61303,0.157551 z m 18.03222,-7.148438 c -4.28646,-1.302881 -3.10184,-10.152581 1.05999,-10.757671 3.17796,1.395329 2.29968,9.909741 -1.05999,10.757671 z m -16.69189,-1.51026 c -4.5842,-1.301412 -3.80642,-8.783651 -0.4043,-11.083005 5.67129,-1.501844 4.32741,7.751867 1.7709,10.347075 l -0.65514,0.515563 z m 33.937505,-9.284175 c -3.573695,-2.127676 -6.798365,-5.17009 -10.707865,-6.907143 -9.23935,-5.185512 -20.40793,-4.688305 -30.4236,-2.410815 -2.53082,0.256697 -10.50728,4.966171 -8.68935,-0.684025 5.78606,-4.787372 13.61175,-4.961868 20.72618,-5.668719 8.23928,-0.100351 16.44001,2.552215 23.52023,6.657074 2.52342,1.782793 7.93713,5.823013 5.574405,9.013628 z"
           id="path5715-2" />
      </g>
    </clipPath>
    <clipPath
       id="clipPath4655-8-2"
       clipPathUnits="userSpaceOnUse">
      <g
         id="use4657-2-6" />
    </clipPath>
  </defs>
  <metadata
     id="metadata1382">
    <rdf:RDF>
      <cc:Work
         rdf:about="">
        <dc:format>image/svg+xml</dc:format>
        <dc:type
           rdf:resource="http://purl.org/dc/dcmitype/StillImage" />
        <dc:title></dc:title>
      </cc:Work>
    </rdf:RDF>
  </metadata>
  <g
     transform="translate(0,-249.37498)"
     id="layer1">
    <g
       transform="matrix(0.35277777,0,0,-0.35277777,27.500513,274.3299)"
       id="g4075" />
    <g
       id="g1346"
       transform="matrix(0.35277777,0,0,-0.35277777,-375.53596,846.66567)">
      <g
         id="g3943"
         transform="translate(1132.4921,1569.1257)">
        <path
           id="path3945"
           d="m -13.58582,80.615068 c -9.314775,0.0077 -17.705026,-7.140382 -19.810351,-16.111185 -1.191825,-3.35901 -0.152775,-8.036685 -1.5447,-10.749098 -5.934525,-0.378652 -12.4962,-4.216995 -13.093725,-10.64376 -0.50025,-6.446715 2.829375,-12.75201 7.246125,-17.238383 6.505125,-4.822455 15.122701,-3.692903 22.729276,-3.523575 9.786,0.450412 19.5909002,0.394612 29.371351,0.952522 6.323775,2.07087 13.45485,-0.705615 19.51455,2.648048 4.7385,2.270032 9.55035,5.037248 12.274425,9.71019 2.36595,2.740193 3.45915,6.36063 2.9763,9.950798 -0.16275,5.477213 -3.726375,11.238765 -9.538275,11.963385 -2.2713,1.279388 -7.0977,-1.61601 -7.629,0.278453 -0.240975,7.03851 -7.51815,11.99871 -14.165775,11.834708 -3.3174,0.03328 -6.8442006,-0.696863 -9.4117507,-2.920741 -2.26215,8.281711 -10.3524752,14.156236 -18.9184503,13.848638 z m 2.348175,-7.706542 c 6.4909501,0.37029 12.15330022,-4.88814 13.6157253,-10.973146 -0.46785,0.904643 1.622325,-5.669325 3.4713001,-1.693215 1.56705,3.22863 5.0969246,4.371848 8.4700506,4.340993 5.47095,0.580687 9.518475,-4.595475 10.164225,-9.583763 1.165425,-2.261767 -0.423525,-9.805088 3.953025,-6.628905 2.642025,3.590138 8.3013,3.43128 11.051325,0.05444 3.500475,-2.5017 2.567625,-7.428315 -0.104925,-10.15266 C 34.823006,33.04103 27.681056,31.364682 21.197156,29.862844 8.9014304,27.365787 -3.6855199,28.395762 -16.11962,28.721524 c -5.84835,0.1485 -11.781976,-0.389835 -17.572426,0.55158 -5.44635,1.574558 -9.54765,8.206028 -7.46505,13.698631 1.800525,3.724665 6.837675,4.6977 10.502475,3.732345 0.41985,-3.184005 7.095826,-5.843303 4.973101,-0.626715 -2.424151,4.435005 -3.785476,9.703478 -2.139676,14.664165 1.491075,3.913583 3.498976,8.661736 7.665601,10.288771 2.9391,0.781792 5.823375,1.937932 8.91795,1.878225 z"
           style="fill:#a9a9a9;fill-opacity:1;fill-rule:evenodd;stroke:none;stroke-width:0.99999994" />
      </g>
      <path
         id="path3945-1"
         d="m 1157.711,1686.679 c -5.9181,-0.1082 -11.2534,-3.3256 -15.3814,-7.3612 -3.0625,-2.4215 -4.5798,-6.1642 -5.9896,-9.6846 -1.0032,-2.9457 -1.8466,-6.0862 -1.1667,-9.1982 0.1584,-3.5794 2.4217,-6.4594 4.2217,-9.3824 3.8231,-6.3053 11.1911,-9.8884 18.4297,-10.1169 6.1165,-0.1999 12.1564,2.5635 16.4278,6.8648 2.2941,2.5929 5.4122,5.261 5.362,9.0202 -0.329,2.883 -3.42,-0.2231 -4.4636,-1.1746 -3.4739,-2.686 -8.1165,-3.3311 -12.3488,-2.5022 -2.8206,0.5865 -6.0335,0.6456 -8.1635,2.8695 -2.6051,2.2364 -4.4047,5.4679 -4.3913,8.9538 -0.052,4.1062 1.1007,8.146 2.5453,11.9519 1.1567,2.7294 3.3157,4.7926 5.2412,6.9672 0.7473,0.8833 1.6956,2.9497 -0.3228,2.7927 z m -9.1786,-9.3267 c -1.3174,-3.7003 -2.6117,-7.605 -2.1265,-11.5806 0.018,-3.4546 0.4891,-7.1633 2.9393,-9.8101 3.1357,-3.7876 7.6267,-7.0916 12.7683,-6.897 2.765,-0.034 5.5085,0.4102 8.2717,0.4245 -4.0592,-2.9447 -9.4313,-3.5942 -14.3012,-2.9487 -2.6695,0.3631 -5.534,0.8034 -7.5227,2.8095 -3.8836,2.9589 -7.0948,7.1363 -7.7864,12.0799 -0.8599,4.9958 0.8688,10.3875 4.7368,13.7288 0.9601,0.7561 1.8148,1.8728 3.0207,2.1937 z"
         style="fill:#eaeaa0;fill-opacity:1;fill-rule:evenodd;stroke:none;stroke-width:0.99999994" />
      <path
         id="path3945-18"
         d="m 1117.0445,1589.9781 c -1.4685,-0.2934 -1.4952,-2.1588 -2.0806,-3.2653 -0.936,-2.4914 -2.2767,-5.2692 -1.2963,-7.9479 0.8788,-2.122 3.636,-2.783 5.6727,-2.1643 2.0021,0.9042 2.1303,3.4864 1.9014,5.3817 -0.3279,2.1146 -1.2001,4.1125 -2.0916,6.0442 -0.4681,0.8187 -1.0589,1.8581 -2.1056,1.9516 z m -0.026,-4.8252 c 1.5461,-0.7818 1.7023,-3.3158 1.1145,-4.7472 -1.532,-0.1117 -2.0854,2.1668 -2.0952,3.4544 -0.015,0.5773 0.2308,1.4172 0.9807,1.2928 z m 14.5474,-4.7183 c -1.9157,-0.5743 -1.6187,-3.1419 -2.5717,-4.5773 -1.1212,-2.6142 -2.55,-5.4043 -2.0461,-8.3309 0.7069,-2.0957 3.1556,-2.8342 5.1503,-2.9925 2.047,-0.1325 3.4138,1.8243 3.7524,3.6364 0.5637,2.5952 0.3286,5.4658 -1.1422,7.7352 -0.8225,1.5397 -1.6926,3.0793 -2.7935,4.4327 0.015,-0.036 -0.3496,0.2195 -0.3492,0.096 z m -0.035,-5.956 c 1.3086,-0.6608 1.8387,-2.3447 1.7911,-3.7362 0.1218,-2.0888 -2.5579,-2.0951 -2.4917,-0.041 -0.024,1.2303 -0.17,2.6419 0.478,3.7255 l 0.2226,0.051 z"
         style="fill:#5baaff;fill-opacity:1;fill-rule:evenodd;stroke:none;stroke-width:0.99999994"
         inkscape:connector-curvature="0"
         sodipodi:nodetypes="cccccccccccccccccccccccccc" />
    </g>
  </g>
</svg>
