<?xml version="1.0" encoding="UTF-8" standalone="no"?>
<svg
   xmlns:dc="http://purl.org/dc/elements/1.1/"
   xmlns:cc="http://creativecommons.org/ns#"
   xmlns:rdf="http://www.w3.org/1999/02/22-rdf-syntax-ns#"
   xmlns:svg="http://www.w3.org/2000/svg"
   xmlns="http://www.w3.org/2000/svg"
   xmlns:sodipodi="http://sodipodi.sourceforge.net/DTD/sodipodi-0.dtd"
   xmlns:inkscape="http://www.inkscape.org/namespaces/inkscape"
   id="svg1385"
   version="1.1"
   viewBox="0 0 47.625001 47.625001"
   height="180"
   width="180"
   sodipodi:docname="10d-r7.svg"
   inkscape:version="0.92.3 (2405546, 2018-03-11)">
  <sodipodi:namedview
     pagecolor="#ffffff"
     bordercolor="#666666"
     borderopacity="1"
     objecttolerance="10"
     gridtolerance="10"
     guidetolerance="10"
     inkscape:pageopacity="0"
     inkscape:pageshadow="2"
     inkscape:window-width="958"
     inkscape:window-height="1008"
     id="namedview1066"
     showgrid="false"
     inkscape:zoom="4.2666667"
     inkscape:cx="90"
     inkscape:cy="90"
     inkscape:window-x="953"
     inkscape:window-y="0"
     inkscape:window-maximized="0"
     inkscape:current-layer="g1323" />
  <defs
     id="defs1379">
    <clipPath
       id="clipPath4655"
       clipPathUnits="userSpaceOnUse">
      <g
         id="use4657">
        <path
           style="fill:#f5f5f5;fill-opacity:1;fill-rule:evenodd;stroke:none;stroke-width:0.99999994"
           d="m -128.98947,97.953372 c -11.43189,0.408324 -23.70408,-6.429464 -26.6441,-18.009007 -2.27329,-3.72461 2.10007,-11.02979 -3.48063,-11.381458 -5.78821,-1.940616 -11.86316,-5.615661 -13.16006,-12.0702 -2.52329,-11.298894 5.87896,-23.160627 16.95935,-25.696885 14.70979,-4.773026 30.39092,-3.672796 45.61478,-3.321994 13.929717,0.969544 28.505509,3.132865 40.353069,11.034744 6.080235,4.225725 11.077625,10.972157 11.433254,18.541977 -0.21125,5.495093 -2.386283,12.041051 -8.617868,13.033287 -4.32877,1.142417 -9.064302,0.761018 -13.19801,-0.948294 -0.06847,4.3004 -1.932466,8.965422 -4.426577,12.56804 -4.390048,6.042588 -12.77184,6.258537 -19.329358,4.346999 -3.1101,-0.07198 -7.23805,-4.267518 -7.3787,0.833719 -2.04177,4.651062 -6.80106,6.786529 -10.93861,9.195585 -2.24621,1.069183 -4.70214,1.721308 -7.18654,1.873487 z m 2.06689,-7.20117 c 6.37009,-0.19427 12.40813,-4.993238 13.31592,-11.42829 2.63658,-3.903477 7.52148,1.091577 11.17305,1.375356 5.647561,2.096133 12.71424,0.632344 16.002664,-4.750279 2.832722,-3.959573 3.782368,-8.890343 3.443755,-13.678323 -0.586053,-4.886768 4.491742,-3.025527 4.597819,0.49716 5.295176,2.310211 13.618127,0.882374 15.065605,-5.531688 0.71882,-7.645431 -5.996596,-13.612881 -12.501042,-16.281527 -12.989213,-5.279131 -27.063451,-6.725142 -40.852711,-8.453516 -6.35282,-0.237154 -12.69856,0.520629 -19.05754,0.216479 -9.37761,0.313126 -20.05514,1.883977 -26.4177,9.523531 -3.76665,4.394314 -4.72147,11.718236 -0.0707,15.877201 3.29015,3.797151 8.94193,3.993009 12.84762,5.872177 -0.78642,4.307078 -1.5788,8.738476 -0.58938,13.136268 1.25328,8.433373 10.25474,12.277839 17.77125,13.237246 1.74523,0.229124 3.50819,0.43661 5.27136,0.388205 z m -8.3247,-12.208005 c -3.93143,1.294158 -9.89806,-7.268069 -4.01278,-6.238393 0.56978,3.471257 10.53366,2.421353 5.23445,6.01427 l -0.61303,0.157551 z m 18.03222,-7.148438 c -4.28646,-1.302881 -3.10184,-10.152581 1.05999,-10.757671 3.17796,1.395329 2.29968,9.909741 -1.05999,10.757671 z m -16.69189,-1.51026 c -4.5842,-1.301412 -3.80642,-8.783651 -0.4043,-11.083005 5.67129,-1.501844 4.32741,7.751867 1.7709,10.347075 l -0.65514,0.515563 z m 33.937505,-9.284175 c -3.573695,-2.127676 -6.798365,-5.17009 -10.707865,-6.907143 -9.23935,-5.185512 -20.40793,-4.688305 -30.4236,-2.410815 -2.53082,0.256697 -10.50728,4.966171 -8.68935,-0.684025 5.78606,-4.787372 13.61175,-4.961868 20.72618,-5.668719 8.23928,-0.100351 16.44001,2.552215 23.52023,6.657074 2.52342,1.782793 7.93713,5.823013 5.574405,9.013628 z"
           id="path5715" />
      </g>
    </clipPath>
    <clipPath
       id="clipPath4655-8"
       clipPathUnits="userSpaceOnUse">
      <g
         id="use4657-2" />
    </clipPath>
    <clipPath
       id="clipPath4655-0"
       clipPathUnits="userSpaceOnUse">
      <g
         id="use4657-4">
        <path
           style="fill:#f5f5f5;fill-opacity:1;fill-rule:evenodd;stroke:none;stroke-width:0.99999994"
           d="m -128.98947,97.953372 c -11.43189,0.408324 -23.70408,-6.429464 -26.6441,-18.009007 -2.27329,-3.72461 2.10007,-11.02979 -3.48063,-11.381458 -5.78821,-1.940616 -11.86316,-5.615661 -13.16006,-12.0702 -2.52329,-11.298894 5.87896,-23.160627 16.95935,-25.696885 14.70979,-4.773026 30.39092,-3.672796 45.61478,-3.321994 13.929717,0.969544 28.505509,3.132865 40.353069,11.034744 6.080235,4.225725 11.077625,10.972157 11.433254,18.541977 -0.21125,5.495093 -2.386283,12.041051 -8.617868,13.033287 -4.32877,1.142417 -9.064302,0.761018 -13.19801,-0.948294 -0.06847,4.3004 -1.932466,8.965422 -4.426577,12.56804 -4.390048,6.042588 -12.77184,6.258537 -19.329358,4.346999 -3.1101,-0.07198 -7.23805,-4.267518 -7.3787,0.833719 -2.04177,4.651062 -6.80106,6.786529 -10.93861,9.195585 -2.24621,1.069183 -4.70214,1.721308 -7.18654,1.873487 z m 2.06689,-7.20117 c 6.37009,-0.19427 12.40813,-4.993238 13.31592,-11.42829 2.63658,-3.903477 7.52148,1.091577 11.17305,1.375356 5.647561,2.096133 12.71424,0.632344 16.002664,-4.750279 2.832722,-3.959573 3.782368,-8.890343 3.443755,-13.678323 -0.586053,-4.886768 4.491742,-3.025527 4.597819,0.49716 5.295176,2.310211 13.618127,0.882374 15.065605,-5.531688 0.71882,-7.645431 -5.996596,-13.612881 -12.501042,-16.281527 -12.989213,-5.279131 -27.063451,-6.725142 -40.852711,-8.453516 -6.35282,-0.237154 -12.69856,0.520629 -19.05754,0.216479 -9.37761,0.313126 -20.05514,1.883977 -26.4177,9.523531 -3.76665,4.394314 -4.72147,11.718236 -0.0707,15.877201 3.29015,3.797151 8.94193,3.993009 12.84762,5.872177 -0.78642,4.307078 -1.5788,8.738476 -0.58938,13.136268 1.25328,8.433373 10.25474,12.277839 17.77125,13.237246 1.74523,0.229124 3.50819,0.43661 5.27136,0.388205 z m -8.3247,-12.208005 c -3.93143,1.294158 -9.89806,-7.268069 -4.01278,-6.238393 0.56978,3.471257 10.53366,2.421353 5.23445,6.01427 l -0.61303,0.157551 z m 18.03222,-7.148438 c -4.28646,-1.302881 -3.10184,-10.152581 1.05999,-10.757671 3.17796,1.395329 2.29968,9.909741 -1.05999,10.757671 z m -16.69189,-1.51026 c -4.5842,-1.301412 -3.80642,-8.783651 -0.4043,-11.083005 5.67129,-1.501844 4.32741,7.751867 1.7709,10.347075 l -0.65514,0.515563 z m 33.937505,-9.284175 c -3.573695,-2.127676 -6.798365,-5.17009 -10.707865,-6.907143 -9.23935,-5.185512 -20.40793,-4.688305 -30.4236,-2.410815 -2.53082,0.256697 -10.50728,4.966171 -8.68935,-0.684025 5.78606,-4.787372 13.61175,-4.961868 20.72618,-5.668719 8.23928,-0.100351 16.44001,2.552215 23.52023,6.657074 2.52342,1.782793 7.93713,5.823013 5.574405,9.013628 z"
           id="path5715-2" />
      </g>
    </clipPath>
    <clipPath
       id="clipPath4655-8-2"
       clipPathUnits="userSpaceOnUse">
      <g
         id="use4657-2-6" />
    </clipPath>
  </defs>
  <metadata
     id="metadata1382">
    <rdf:RDF>
      <cc:Work
         rdf:about="">
        <dc:format>image/svg+xml</dc:format>
        <dc:type
           rdf:resource="http://purl.org/dc/dcmitype/StillImage" />
        <dc:title></dc:title>
      </cc:Work>
    </rdf:RDF>
  </metadata>
  <g
     transform="translate(0,-249.37498)"
     id="layer1">
    <g
       transform="matrix(0.35277777,0,0,-0.35277777,27.500513,274.3299)"
       id="g4075" />
    <g
       id="g1323"
       transform="matrix(0.35277777,0,0,-0.35277777,-467.52371,907.00041)">
      <g
         id="g4067"
         transform="translate(1403.8344,1744.6497)">
        <path
           id="path4069"
           d="m 8.6046377,107.25416 c -3.4730251,-0.29662 -5.3684252,-3.64537 -8.43300026,-0.52454 -4.80862514,1.7232 -9.63150024,-1.32666 -13.02442544,-4.47828 -5.010225,1.68857 -10.7133,3.0235 -16.106925,1.67688 -9.625276,-1.70651 -17.799151,-8.716265 -21.353851,-17.766882 -1.68645,-3.238711 -1.706625,-6.88611 -1.625325,-10.43208 -6.6987,-1.881608 -14.056425,-6.349868 -14.74245,-13.974195 -0.85365,-7.614593 3.648675,-15.348991 10.8504,-18.133711 10.906125,-4.51908 22.924876,-5.147078 34.571101,-5.77335 2.6217,0.228202 5.229825,0.47538 7.8912,0.351952 12.1668754,-0.596392 24.376351,-0.287175 36.524476,0.483765 3.83685,0.6294 7.8627,0.756915 11.5248,2.744453 4.755975,2.0724 8.461876,6.34317 7.867876,11.7672 0.216,4.09032 -3.888976,8.148031 0.7266,10.926931 3.28215,4.184857 -3.239475,8.488657 0.987375,11.679067 1.358025,4.873375 -0.923925,11.574735 -6.594601,12.207745 -4.345275,0.793884 -1.298625,8.100274 -4.605525,11.156934 -3.234375,5.439481 -10.290525,9.599781 -16.596525,7.011621 -3.362175,-2.95384 -4.00125,1.93584 -7.8612003,1.07649 z m -0.8115751,-3.58887 c 3.2406004,0.0642 5.0508754,-6.212887 7.9475254,-1.81768 4.809375,2.27419 11.3763,0.30491 13.45065,-4.81992 2.136225,-4.626484 2.57505,-10.02744 1.26405,-14.9163 2.171025,-4.28535 2.99475,6.94451 7.2207,3.103345 3.517876,-2.882405 3.504526,-8.07232 0.574125,-11.376595 -2.82735,-3.59829 1.679626,-2.792887 2.931301,-4.690365 -0.28755,-4.451692 -3.868651,-7.26057 -7.578451,-4.0791 -3.387825,0.604343 -1.431525,6.789255 -4.5348,9.214215 -2.02845,4.077285 -7.60065,7.192251 -11.977725,4.797923 -0.627,5.631581 -3.055575,11.700033 -8.6499003,14.03184 -3.8429251,2.051469 -8.25727526,1.816261 -12.4379254,1.640284 -2.702925,-2.441976 -3.8568751,3.963174 -3.5944501,5.533463 2.5736251,3.76862 8.6559753,3.22037 11.0674503,-0.380834 3.7792501,-1.77908 -0.632625,5.007064 4.3174501,3.759724 z M -25.056038,99.174079 c 5.899425,0.02321 13.175775,-1.478314 16.1043752,-7.183176 0.41475,-2.959518 2.8085251,-6.685101 5.1084001,-2.845873 4.63200016,1.358615 10.3769253,0.08871 13.8264004,-3.30928 3.2907753,-4.320901 2.4544503,-10.100702 2.9112753,-15.146207 3.49725,-3.023588 4.706025,7.993965 9.857775,4.695397 3.86145,-3.205425 5.21205,-8.78775 4.379025,-13.636087 -0.77205,-6.016343 3.929025,3.355717 7.253175,-0.213938 3.804375,-2.937615 4.049175,-9.82296 1.61985,-13.68204 -4.61415,-4.63653 -11.5842,-4.036013 -17.584875,-4.552103 -9.9249753,0.05018 -19.8204756,-1.793685 -29.753851,-0.705097 -7.161525,0.853215 -14.2797,2.03748 -21.484875,2.537152 -7.035226,0.836565 -14.209651,1.85949 -20.771401,4.546403 -4.414875,2.616322 -8.7621,8.50155 -5.579925,13.596128 1.5291,4.859437 6.795825,7.283557 11.43075,8.54913 6.194025,0.276427 0.61695,6.869445 2.076975,10.491983 1.320225,9.762568 10.873726,17.226924 20.606926,16.857608 z m -0.4746,-15.782227 c -4.125525,0.653237 -8.89155,-7.306824 -4.604175,-8.311997 1.116975,3.67404 5.547075,4.028025 7.015275,7.017075 -0.5103,0.814237 -1.446975,1.333738 -2.4111,1.294922 z m 17.3510252,-1.640625 c -4.4289752,-1.10152 2.4646501,-2.832137 2.9019001,-4.890279 2.8455751,-0.38637 -1.109475,5.878785 -2.9019001,4.890279 z m -1.8720002,-5.351072 c -4.811475,-1.21113 -2.205225,-13.01646 2.5127252,-8.899905 1.6852501,2.70711 1.0300501,8.05449 -2.5127252,8.899905 z m -15.75,-1.340332 c -4.919325,-0.829208 -2.864175,-11.45976 1.781925,-10.241888 3.431775,1.952108 2.110275,7.78995 -0.726,9.789945 l -0.5019,0.252015 z m 10.669875,-14.538578 c -4.372725,-0.194273 -10.3335,-2.36049 -10.5654,-7.476915 2.10555,-3.55824 5.498475,4.695345 9.376425,3.035557 3.972225,0.893948 8.6045252,-4.578735 11.5543503,-2.344905 -0.09255,4.438718 -5.6341503,6.098655 -9.3351753,6.70536 z"
           style="fill:#a9a9a9;fill-opacity:1;fill-rule:evenodd;stroke:none;stroke-width:0.99999994" />
      </g>
      <path
         id="path4069-9"
         d="m 1432.9877,1784.1873 c -1.0503,-0.1499 -2.1005,-0.2998 -3.1508,-0.4497 1.2523,-0.8098 1.1023,-6.14 0.024,-2.8471 -0.5018,1.8089 0.1071,3.4061 -2.1817,2.5387 -1.9309,0.2835 -2.224,-1.3985 -2.1175,-3.0162 -0.401,-2.9091 2.4465,-6.043 5.3766,-4.6012 3.0402,1.4854 3.0547,5.6237 2.0489,8.3755 z m -47.25,-1.3403 c -1.5712,-2.5459 -2.0284,-6.0102 -0.5677,-8.6972 2.165,-2.9007 6.6597,-0.9017 7.4031,2.2259 1.581,1.7812 0.3507,5.2824 -0.6109,6.4713 z m 0,0 c -1.0681,-0.2097 -1.3472,-0.533 0,0 z m 2.0127,-2.0083 c 1.8543,-0.5721 -0.8281,-5.2843 -0.3315,-1.7598 0.1053,0.5868 0.338,1.156 0.3315,1.7598 z m -14.4097,-1.0078 c -2.3909,-1.5061 -3.5543,-4.5699 -4.274,-7.2123 -0.5244,-2.6366 0.1601,-6.6014 3.3864,-6.9962 2.5371,-0.091 4.7242,2.0733 4.5515,4.6397 0.3153,2.9903 -0.4036,6.0551 -2.0104,8.542 -0.2662,0.6501 -0.9258,1.1346 -1.6535,1.0268 z m 31.1148,-1.1587 c -2.4278,-1.2121 -2.9434,-4.4854 -4.586,-6.5633 -1.322,-2.6026 -0.8735,-6.3789 1.5866,-8.139 2.5935,-1.3194 5.6346,0.5254 6.9561,2.9884 1.2987,3.4431 -0.314,7.5203 -2.242,10.4995 -0.416,0.5523 -0.9567,1.2112 -1.7147,1.2144 z m -0.2856,-5.2075 c 1.8448,-1.1842 2.5569,-6.3327 0.2106,-5.9978 -0.5432,1.9672 0.1685,4.0195 -0.2106,5.9978 z m 16.0707,-0.586 c -2.4161,-0.6568 -2.7487,-3.8771 -3.7502,-5.8641 -0.9025,-2.9332 -1.5505,-6.9622 1.1619,-9.148 3.12,-2.2332 8.3679,0.4599 7.7946,4.4604 -0.2167,3.4062 -2.4025,6.1789 -3.744,9.1961 -0.3488,0.5499 -0.7662,1.2222 -1.4623,1.3556 z m -47.5708,-0.7544 c 1.8743,-0.1497 -0.098,-4.8835 -0.039,-1.7157 0.027,0.57 0.1478,1.1468 0.039,1.7157 z m 47.584,-3.6884 c 1.1952,-2.222 3.235,-5.3642 1.3538,-7.6915 -2.6532,0.3821 -1.7816,4.3225 -1.6955,6.3095 0.078,0.4684 0.1845,0.9334 0.3417,1.382 z m -32.8666,-1.7476 c -1.9347,-1.5199 -2.5999,-4.2076 -4.2845,-6.0328 -2.1637,-2.7449 -1.5618,-7.8591 2.2333,-8.7793 2.5717,-0.5676 5.7414,0.7219 6.382,3.4617 1.3576,3.4514 -1.1861,6.7753 -2.7096,9.7152 -0.4351,0.5921 -0.8159,1.491 -1.6212,1.6352 z m -0.6432,-5.2881 c 2.1916,-0.6725 2.9583,-6.6043 -0.066,-5.3738 -1.139,1.5638 0.066,3.6426 0.066,5.3738 z m -16.0839,-1.6758 c -1.2918,-2.6631 -2.8949,-5.307 -4.0915,-8.0686 -1.4322,-3.5579 3.6014,-7.8427 6.6423,-5.134 2.651,2.5012 1.8602,6.6869 0.032,9.4326 -0.9738,1.2937 -0.089,4.1854 -2.5824,3.77 z m 0.3339,-6.3662 c 2.3092,-0.046 0.5041,-5.407 -0.035,-2.0459 0,0.6821 0.1243,1.3647 0.035,2.0459 z"
         style="fill:#5baaff;fill-opacity:1;fill-rule:evenodd;stroke:none;stroke-width:0.99999994"
         inkscape:connector-curvature="0"
         sodipodi:nodetypes="cccccccccccccccccccccccccccccccccccccccccccccccccccccccccccccccc" />
    </g>
  </g>
</svg>
