<?xml version="1.0" encoding="UTF-8" standalone="no"?>
<svg
   xmlns:dc="http://purl.org/dc/elements/1.1/"
   xmlns:cc="http://creativecommons.org/ns#"
   xmlns:rdf="http://www.w3.org/1999/02/22-rdf-syntax-ns#"
   xmlns:svg="http://www.w3.org/2000/svg"
   xmlns="http://www.w3.org/2000/svg"
   xmlns:sodipodi="http://sodipodi.sourceforge.net/DTD/sodipodi-0.dtd"
   xmlns:inkscape="http://www.inkscape.org/namespaces/inkscape"
   id="svg1385"
   version="1.1"
   viewBox="0 0 47.625001 47.625001"
   height="180"
   width="180"
   sodipodi:docname="11d-r2.svg"
   inkscape:version="0.92.3 (2405546, 2018-03-11)">
  <sodipodi:namedview
     pagecolor="#ffffff"
     bordercolor="#666666"
     borderopacity="1"
     objecttolerance="10"
     gridtolerance="10"
     guidetolerance="10"
     inkscape:pageopacity="0"
     inkscape:pageshadow="2"
     inkscape:window-width="958"
     inkscape:window-height="1008"
     id="namedview6904"
     showgrid="false"
     inkscape:zoom="3.7083822"
     inkscape:cx="92.778347"
     inkscape:cy="74.376197"
     inkscape:window-x="953"
     inkscape:window-y="0"
     inkscape:window-maximized="0"
     inkscape:current-layer="svg1385" />
  <defs
     id="defs1379">
    <clipPath
       id="clipPath4655"
       clipPathUnits="userSpaceOnUse">
      <g
         id="use4657">
        <path
           style="fill:#f5f5f5;fill-opacity:1;fill-rule:evenodd;stroke:none;stroke-width:0.99999994"
           d="m -128.98947,97.953372 c -11.43189,0.408324 -23.70408,-6.429464 -26.6441,-18.009007 -2.27329,-3.72461 2.10007,-11.02979 -3.48063,-11.381458 -5.78821,-1.940616 -11.86316,-5.615661 -13.16006,-12.0702 -2.52329,-11.298894 5.87896,-23.160627 16.95935,-25.696885 14.70979,-4.773026 30.39092,-3.672796 45.61478,-3.321994 13.929717,0.969544 28.505509,3.132865 40.353069,11.034744 6.080235,4.225725 11.077625,10.972157 11.433254,18.541977 -0.21125,5.495093 -2.386283,12.041051 -8.617868,13.033287 -4.32877,1.142417 -9.064302,0.761018 -13.19801,-0.948294 -0.06847,4.3004 -1.932466,8.965422 -4.426577,12.56804 -4.390048,6.042588 -12.77184,6.258537 -19.329358,4.346999 -3.1101,-0.07198 -7.23805,-4.267518 -7.3787,0.833719 -2.04177,4.651062 -6.80106,6.786529 -10.93861,9.195585 -2.24621,1.069183 -4.70214,1.721308 -7.18654,1.873487 z m 2.06689,-7.20117 c 6.37009,-0.19427 12.40813,-4.993238 13.31592,-11.42829 2.63658,-3.903477 7.52148,1.091577 11.17305,1.375356 5.647561,2.096133 12.71424,0.632344 16.002664,-4.750279 2.832722,-3.959573 3.782368,-8.890343 3.443755,-13.678323 -0.586053,-4.886768 4.491742,-3.025527 4.597819,0.49716 5.295176,2.310211 13.618127,0.882374 15.065605,-5.531688 0.71882,-7.645431 -5.996596,-13.612881 -12.501042,-16.281527 -12.989213,-5.279131 -27.063451,-6.725142 -40.852711,-8.453516 -6.35282,-0.237154 -12.69856,0.520629 -19.05754,0.216479 -9.37761,0.313126 -20.05514,1.883977 -26.4177,9.523531 -3.76665,4.394314 -4.72147,11.718236 -0.0707,15.877201 3.29015,3.797151 8.94193,3.993009 12.84762,5.872177 -0.78642,4.307078 -1.5788,8.738476 -0.58938,13.136268 1.25328,8.433373 10.25474,12.277839 17.77125,13.237246 1.74523,0.229124 3.50819,0.43661 5.27136,0.388205 z m -8.3247,-12.208005 c -3.93143,1.294158 -9.89806,-7.268069 -4.01278,-6.238393 0.56978,3.471257 10.53366,2.421353 5.23445,6.01427 l -0.61303,0.157551 z m 18.03222,-7.148438 c -4.28646,-1.302881 -3.10184,-10.152581 1.05999,-10.757671 3.17796,1.395329 2.29968,9.909741 -1.05999,10.757671 z m -16.69189,-1.51026 c -4.5842,-1.301412 -3.80642,-8.783651 -0.4043,-11.083005 5.67129,-1.501844 4.32741,7.751867 1.7709,10.347075 l -0.65514,0.515563 z m 33.937505,-9.284175 c -3.573695,-2.127676 -6.798365,-5.17009 -10.707865,-6.907143 -9.23935,-5.185512 -20.40793,-4.688305 -30.4236,-2.410815 -2.53082,0.256697 -10.50728,4.966171 -8.68935,-0.684025 5.78606,-4.787372 13.61175,-4.961868 20.72618,-5.668719 8.23928,-0.100351 16.44001,2.552215 23.52023,6.657074 2.52342,1.782793 7.93713,5.823013 5.574405,9.013628 z"
           id="path5715" />
      </g>
    </clipPath>
    <clipPath
       id="clipPath4655-8"
       clipPathUnits="userSpaceOnUse">
      <g
         id="use4657-2" />
    </clipPath>
    <clipPath
       id="clipPath4655-0"
       clipPathUnits="userSpaceOnUse">
      <g
         id="use4657-4">
        <path
           style="fill:#f5f5f5;fill-opacity:1;fill-rule:evenodd;stroke:none;stroke-width:0.99999994"
           d="m -128.98947,97.953372 c -11.43189,0.408324 -23.70408,-6.429464 -26.6441,-18.009007 -2.27329,-3.72461 2.10007,-11.02979 -3.48063,-11.381458 -5.78821,-1.940616 -11.86316,-5.615661 -13.16006,-12.0702 -2.52329,-11.298894 5.87896,-23.160627 16.95935,-25.696885 14.70979,-4.773026 30.39092,-3.672796 45.61478,-3.321994 13.929717,0.969544 28.505509,3.132865 40.353069,11.034744 6.080235,4.225725 11.077625,10.972157 11.433254,18.541977 -0.21125,5.495093 -2.386283,12.041051 -8.617868,13.033287 -4.32877,1.142417 -9.064302,0.761018 -13.19801,-0.948294 -0.06847,4.3004 -1.932466,8.965422 -4.426577,12.56804 -4.390048,6.042588 -12.77184,6.258537 -19.329358,4.346999 -3.1101,-0.07198 -7.23805,-4.267518 -7.3787,0.833719 -2.04177,4.651062 -6.80106,6.786529 -10.93861,9.195585 -2.24621,1.069183 -4.70214,1.721308 -7.18654,1.873487 z m 2.06689,-7.20117 c 6.37009,-0.19427 12.40813,-4.993238 13.31592,-11.42829 2.63658,-3.903477 7.52148,1.091577 11.17305,1.375356 5.647561,2.096133 12.71424,0.632344 16.002664,-4.750279 2.832722,-3.959573 3.782368,-8.890343 3.443755,-13.678323 -0.586053,-4.886768 4.491742,-3.025527 4.597819,0.49716 5.295176,2.310211 13.618127,0.882374 15.065605,-5.531688 0.71882,-7.645431 -5.996596,-13.612881 -12.501042,-16.281527 -12.989213,-5.279131 -27.063451,-6.725142 -40.852711,-8.453516 -6.35282,-0.237154 -12.69856,0.520629 -19.05754,0.216479 -9.37761,0.313126 -20.05514,1.883977 -26.4177,9.523531 -3.76665,4.394314 -4.72147,11.718236 -0.0707,15.877201 3.29015,3.797151 8.94193,3.993009 12.84762,5.872177 -0.78642,4.307078 -1.5788,8.738476 -0.58938,13.136268 1.25328,8.433373 10.25474,12.277839 17.77125,13.237246 1.74523,0.229124 3.50819,0.43661 5.27136,0.388205 z m -8.3247,-12.208005 c -3.93143,1.294158 -9.89806,-7.268069 -4.01278,-6.238393 0.56978,3.471257 10.53366,2.421353 5.23445,6.01427 l -0.61303,0.157551 z m 18.03222,-7.148438 c -4.28646,-1.302881 -3.10184,-10.152581 1.05999,-10.757671 3.17796,1.395329 2.29968,9.909741 -1.05999,10.757671 z m -16.69189,-1.51026 c -4.5842,-1.301412 -3.80642,-8.783651 -0.4043,-11.083005 5.67129,-1.501844 4.32741,7.751867 1.7709,10.347075 l -0.65514,0.515563 z m 33.937505,-9.284175 c -3.573695,-2.127676 -6.798365,-5.17009 -10.707865,-6.907143 -9.23935,-5.185512 -20.40793,-4.688305 -30.4236,-2.410815 -2.53082,0.256697 -10.50728,4.966171 -8.68935,-0.684025 5.78606,-4.787372 13.61175,-4.961868 20.72618,-5.668719 8.23928,-0.100351 16.44001,2.552215 23.52023,6.657074 2.52342,1.782793 7.93713,5.823013 5.574405,9.013628 z"
           id="path5715-2" />
      </g>
    </clipPath>
    <clipPath
       id="clipPath4655-8-2"
       clipPathUnits="userSpaceOnUse">
      <g
         id="use4657-2-6" />
    </clipPath>
  </defs>
  <metadata
     id="metadata1382">
    <rdf:RDF>
      <cc:Work
         rdf:about="">
        <dc:format>image/svg+xml</dc:format>
        <dc:type
           rdf:resource="http://purl.org/dc/dcmitype/StillImage" />
        <dc:title></dc:title>
      </cc:Work>
    </rdf:RDF>
  </metadata>
  <g
     transform="translate(0,-249.37498)"
     id="layer1">
    <g
       transform="matrix(0.35277777,0,0,-0.35277777,27.500513,274.3299)"
       id="g4075" />
    <g
       id="g1329"
       transform="matrix(0.35277777,0,0,-0.35277777,-558.73128,906.9935)">
      <g
         id="g4063"
         transform="translate(1629.4218,1746.6698)">
        <path
           id="path4065"
           d="M 7.5792437,103.45281 C -4.3466567,103.7801 -16.931507,95.857262 -19.318382,83.688393 c -1.62735,-3.992837 2.833575,-9.981185 -3.547725,-10.061893 -6.119025,-1.786065 -11.3016,-7.152345 -11.597625,-13.71501 -0.915675,-7.60296 1.587375,-16.540965 8.406,-20.740801 4.4895,-2.451697 9.4161,-3.93297 14.52135,-4.143037 5.2587003,-0.535163 10.57230043,-0.215505 15.8573256,-0.35427 2.578275,-0.228945 4.9257751,0.164655 5.4042751,2.98743 -4.1295001,-0.957503 -8.5022252,0.464212 -12.7424253,0.166942 -7.6911754,1.57671 -16.6610254,2.325076 -22.0992754,8.694038 -3.276675,4.912013 -5.66745,12.465173 -1.05135,17.343616 3.0492,3.404722 7.500225,5.83137 12.168975,5.204452 5.0283002,1.416353 0.6429,8.153288 1.457175,11.887705 -0.84165,7.310762 6.1831503,12.875831 12.64567545,14.421211 6.20190015,0.978991 13.00815055,2.649855 18.98932555,-0.0389 4.2381,-2.277567 6.421725,-6.695696 7.94805,-11.025496 2.700075,-2.41374 5.58525,3.5101 9.1878,2.930344 4.049176,0.417677 8.706601,0.867232 12.339226,-1.231092 4.17795,-3.413098 8.798025,-7.941704 8.4333,-13.801709 3.46125,-2.661307 8.937375,-0.08002 12.394425,-3.296092 5.34855,-3.324173 4.257375,-11.277796 0.398025,-15.323738 -2.94315,-3.850028 -7.266525,-5.964368 -11.513775,-7.826303 -2.04885,-3.9837 6.30015,-1.941765 8.420925,-1.040647 4.7688,2.12238 9.1215,5.781517 10.419676,11.041102 2.058375,5.306138 2.080575,12.469943 -3.098551,16.023031 -3.604575,3.365722 -8.646375,4.317502 -13.03665,5.47605 -1.912125,7.581503 -6.831375,15.928528 -15.311775,17.034093 -5.41365,0.505813 -10.828576,-0.766517 -15.993226,-2.282649 -2.732625,3.691805 -5.884575,7.643347 -10.436625,9.13708 -3.72,1.39006 -7.69485,2.17624 -11.6649003,2.29896 z M 16.983494,81.57683 c -2.99685,-0.640298 -8.9171253,-4.167364 -6.829425,-7.368405 2.281875,2.05368 9.27735,3.344099 7.875525,7.114806 l -0.468525,0.211378 z M -3.2078566,80.435717 c -3.4923001,0.462962 -4.1766001,-3.785629 -0.066975,-3.282199 2.08215,-0.18531 7.6139252,-4.74456 6.9357001,-0.256455 -1.62975,2.091013 -4.24912506,3.34253 -6.8687251,3.538654 z M 15.685694,72.527023 c -4.382175,-0.424418 -3.875175,-11.14572 0.983325,-8.885655 2.3766,1.854502 2.34135,8.251005 -0.983325,8.885655 z M -0.26065656,71.935228 c -3.73965014,-1.242893 -4.10512514,-9.19332 0.49837502,-9.458603 2.52210004,1.516733 2.56642504,8.42973 -0.49837502,9.458603 z M 10.788719,56.51921 c -5.3212504,-0.0434 -12.1263756,-0.319088 -15.1434007,-5.422403 -1.811325,-5.774842 5.3991752,0.766478 7.7406752,0.764843 4.5345752,1.65786 9.5394755,0.862117 13.9786505,-0.67194 6.95055,2.37252 -4.23525,6.269227 -6.575925,5.3295 z"
           style="fill:#a9a9a9;fill-opacity:1;fill-rule:evenodd;stroke:none;stroke-width:0.99999994" />
      </g>
      <path
         id="path4065-5"
         d="m 1677.1737,1821.7913 c -2.5232,-0.024 -4.9279,-1.1091 -7.4678,-0.7831 -2.8414,-0.012 -2.0027,-3.9818 -3.7471,-5.4782 -1.9011,-3.006 -3.6697,-6.091 -5.5975,-9.0777 -1.5228,-3.7959 -5.4834,-6.6246 -5.267,-11.0431 -0.053,-2.6758 3.1517,-2.5784 4.9795,-3.2674 2.1481,-0.8866 4.7551,-0.4783 6.6836,-1.8222 -0.043,-1.9375 -1.8665,-3.6143 -2.7395,-5.3632 -1.3499,-1.8911 -1.8043,-4.4551 -3.68,-5.9283 -1.7294,-0.6366 -5.3761,0.1352 -4.5644,-2.883 0.66,-3.4354 2.5682,-6.4669 3.2985,-9.8869 0.2657,-2.6611 3.3664,-4.131 4.9963,-1.5483 3.7508,3.3573 9.2653,4.4084 12.2718,8.6522 0.5236,2.8947 -4.1248,1.3752 -4.9094,3.3846 1.0224,2.4186 2.9499,4.4151 4.3235,6.6687 2.7849,3.9612 5.3255,8.0909 7.8388,12.2198 1.3884,1.9247 3.462,3.6491 3.8238,6.1035 -1.1687,2.4255 -4.9281,1.2705 -7.1867,1.953 -2.112,0.5144 -4.6329,-0.4035 -6.4892,0.8395 0.2868,2.2833 2.7886,3.8012 3.5364,6.0563 1.4684,2.9371 3.2374,5.9807 3.2928,9.3411 -0.2251,1.5744 -2.0951,1.9084 -3.3964,1.8627 z m -5.3027,-3.9843 c 1.1545,-0.6041 3.7344,-0.4947 4.1751,-0.8873 -2.152,-5.6824 -6.9361,-9.8899 -9.145,-15.526 -0.5707,-2.641 3.3519,-1.6984 4.9507,-1.9202 2.3104,-0.1 4.4904,1.0124 6.8095,0.5505 1.6336,-0.2835 5.2754,-0.3733 2.7168,-2.3635 -4.6519,-6.5996 -8.8549,-13.5337 -13.9447,-19.8099 -1.4262,-1.1185 -1.6085,-2.7883 0.5607,-3.0574 3.166,-0.4453 -0.2947,-2.2287 -1.429,-3.1323 -1.536,-0.7225 -3.358,-3.4156 -4.7464,-2.7927 -0.4537,1.6814 -2.2951,4.582 -1.3105,5.6474 1.7264,-0.6009 4.0239,0.587 2.8321,2.5128 0.2309,2.2318 2.6865,2.2738 3.6563,3.557 -1.7913,2.7167 2.4846,1.7972 3.2766,3.2242 -0.9716,0.7955 -2.9549,2.3462 -0.4489,2.6386 2.35,-0.7657 2.5052,1.9121 0.8603,2.8845 0.5438,2.3064 3.1529,4.0696 2.8397,6.6159 -2.2633,1.8306 -5.6234,1.0021 -8.3594,1.2862 -1.8229,0.3258 -4.7631,-0.5258 -5.9337,0.5071 1.621,2.3762 3.4525,4.6299 4.9438,7.0959 0.072,2.8978 2.637,1.6018 4.2957,1.868 1.3756,1.7999 -1.0657,1.7613 -1.5562,2.6318 0.4737,1.7771 5.392,-0.3177 3.2657,2.5691 -0.9082,0.6371 -1.91,0.6868 -0.2445,0.9278 1.6275,-0.188 3.2139,1.755 0.7832,2.0922 -1.3703,0.2584 0.2709,3.0235 1.1521,2.8803 z"
         style="fill:#ffff00;fill-opacity:1;fill-rule:evenodd;stroke:none;stroke-width:0.99999994" />
      <path
         id="path4065-6"
         d="m 1623.8394,1779.3516 c -1.6779,-0.7987 -1.9915,-3.0256 -3.0078,-4.4492 -1.2549,-2.5031 -2.2589,-6.0697 0.033,-8.2947 1.3134,-1.2674 3.8542,-1.6533 4.885,0.1637 1.8884,3.176 0.9314,7.1013 -0.6459,10.1929 -0.6251,0.6579 -0.1486,2.3172 -1.2645,2.3873 z m -0.627,-6.1435 c 1.8612,-0.6885 3.4741,-3.71 1.1076,-4.7945 -1.4651,0.7259 -1.7866,3.4191 -1.2394,4.793 h 0.1318 z m 14.9898,-4.8765 c -1.8506,-0.7033 -1.9528,-3.048 -2.7936,-4.585 -1.3267,-2.6666 -3.007,-5.8715 -1.6059,-8.8413 1.0941,-1.9875 3.8358,-3.2781 5.9886,-2.3312 2.1048,1.351 2.2284,4.2512 2.0236,6.4978 -0.4568,2.9135 -0.8669,5.9821 -2.4248,8.5454 -0.2804,0.3738 -0.6725,0.7659 -1.1879,0.7143 z m 0.854,-8.5195 c 2.2433,-0.5014 2.3564,-4.9899 -0.3398,-5.0516 -2.1247,0.1972 -1.8417,3.3355 -0.7461,4.5724 0.2724,0.3006 0.6721,0.5057 1.0859,0.4792 z"
         style="fill:#5baaff;fill-opacity:1;fill-rule:evenodd;stroke:none;stroke-width:0.99999994"
         inkscape:connector-curvature="0"
         sodipodi:nodetypes="ccccccccccccccccccccccc" />
    </g>
  </g>
</svg>
