<?xml version="1.0" encoding="UTF-8" standalone="no"?>
<svg
   xmlns:dc="http://purl.org/dc/elements/1.1/"
   xmlns:cc="http://creativecommons.org/ns#"
   xmlns:rdf="http://www.w3.org/1999/02/22-rdf-syntax-ns#"
   xmlns:svg="http://www.w3.org/2000/svg"
   xmlns="http://www.w3.org/2000/svg"
   xmlns:sodipodi="http://sodipodi.sourceforge.net/DTD/sodipodi-0.dtd"
   xmlns:inkscape="http://www.inkscape.org/namespaces/inkscape"
   id="svg1385"
   version="1.1"
   viewBox="0 0 47.625001 47.625001"
   height="180"
   width="180"
   sodipodi:docname="13d-r2.svg"
   inkscape:version="0.92.3 (2405546, 2018-03-11)">
  <sodipodi:namedview
     pagecolor="#ffffff"
     bordercolor="#666666"
     borderopacity="1"
     objecttolerance="10"
     gridtolerance="10"
     guidetolerance="10"
     inkscape:pageopacity="0"
     inkscape:pageshadow="2"
     inkscape:window-width="958"
     inkscape:window-height="1008"
     id="namedview1743"
     showgrid="false"
     inkscape:zoom="3.7083822"
     inkscape:cx="86.970126"
     inkscape:cy="68.63148"
     inkscape:window-x="953"
     inkscape:window-y="0"
     inkscape:window-maximized="0"
     inkscape:current-layer="g1312" />
  <defs
     id="defs1379">
    <clipPath
       id="clipPath4655"
       clipPathUnits="userSpaceOnUse">
      <g
         id="use4657">
        <path
           style="fill:#f5f5f5;fill-opacity:1;fill-rule:evenodd;stroke:none;stroke-width:0.99999994"
           d="m -128.98947,97.953372 c -11.43189,0.408324 -23.70408,-6.429464 -26.6441,-18.009007 -2.27329,-3.72461 2.10007,-11.02979 -3.48063,-11.381458 -5.78821,-1.940616 -11.86316,-5.615661 -13.16006,-12.0702 -2.52329,-11.298894 5.87896,-23.160627 16.95935,-25.696885 14.70979,-4.773026 30.39092,-3.672796 45.61478,-3.321994 13.929717,0.969544 28.505509,3.132865 40.353069,11.034744 6.080235,4.225725 11.077625,10.972157 11.433254,18.541977 -0.21125,5.495093 -2.386283,12.041051 -8.617868,13.033287 -4.32877,1.142417 -9.064302,0.761018 -13.19801,-0.948294 -0.06847,4.3004 -1.932466,8.965422 -4.426577,12.56804 -4.390048,6.042588 -12.77184,6.258537 -19.329358,4.346999 -3.1101,-0.07198 -7.23805,-4.267518 -7.3787,0.833719 -2.04177,4.651062 -6.80106,6.786529 -10.93861,9.195585 -2.24621,1.069183 -4.70214,1.721308 -7.18654,1.873487 z m 2.06689,-7.20117 c 6.37009,-0.19427 12.40813,-4.993238 13.31592,-11.42829 2.63658,-3.903477 7.52148,1.091577 11.17305,1.375356 5.647561,2.096133 12.71424,0.632344 16.002664,-4.750279 2.832722,-3.959573 3.782368,-8.890343 3.443755,-13.678323 -0.586053,-4.886768 4.491742,-3.025527 4.597819,0.49716 5.295176,2.310211 13.618127,0.882374 15.065605,-5.531688 0.71882,-7.645431 -5.996596,-13.612881 -12.501042,-16.281527 -12.989213,-5.279131 -27.063451,-6.725142 -40.852711,-8.453516 -6.35282,-0.237154 -12.69856,0.520629 -19.05754,0.216479 -9.37761,0.313126 -20.05514,1.883977 -26.4177,9.523531 -3.76665,4.394314 -4.72147,11.718236 -0.0707,15.877201 3.29015,3.797151 8.94193,3.993009 12.84762,5.872177 -0.78642,4.307078 -1.5788,8.738476 -0.58938,13.136268 1.25328,8.433373 10.25474,12.277839 17.77125,13.237246 1.74523,0.229124 3.50819,0.43661 5.27136,0.388205 z m -8.3247,-12.208005 c -3.93143,1.294158 -9.89806,-7.268069 -4.01278,-6.238393 0.56978,3.471257 10.53366,2.421353 5.23445,6.01427 l -0.61303,0.157551 z m 18.03222,-7.148438 c -4.28646,-1.302881 -3.10184,-10.152581 1.05999,-10.757671 3.17796,1.395329 2.29968,9.909741 -1.05999,10.757671 z m -16.69189,-1.51026 c -4.5842,-1.301412 -3.80642,-8.783651 -0.4043,-11.083005 5.67129,-1.501844 4.32741,7.751867 1.7709,10.347075 l -0.65514,0.515563 z m 33.937505,-9.284175 c -3.573695,-2.127676 -6.798365,-5.17009 -10.707865,-6.907143 -9.23935,-5.185512 -20.40793,-4.688305 -30.4236,-2.410815 -2.53082,0.256697 -10.50728,4.966171 -8.68935,-0.684025 5.78606,-4.787372 13.61175,-4.961868 20.72618,-5.668719 8.23928,-0.100351 16.44001,2.552215 23.52023,6.657074 2.52342,1.782793 7.93713,5.823013 5.574405,9.013628 z"
           id="path5715" />
      </g>
    </clipPath>
    <clipPath
       id="clipPath4655-8"
       clipPathUnits="userSpaceOnUse">
      <g
         id="use4657-2" />
    </clipPath>
  </defs>
  <metadata
     id="metadata1382">
    <rdf:RDF>
      <cc:Work
         rdf:about="">
        <dc:format>image/svg+xml</dc:format>
        <dc:type
           rdf:resource="http://purl.org/dc/dcmitype/StillImage" />
        <dc:title></dc:title>
      </cc:Work>
    </rdf:RDF>
  </metadata>
  <g
     transform="translate(0,-249.37498)"
     id="layer1">
    <g
       transform="matrix(0.35277777,0,0,-0.35277777,27.500513,274.3299)"
       id="g4075" />
    <g
       id="g1312"
       transform="matrix(0.35277777,0,0,-0.35277777,-285.11458,906.98976)">
      <g
         id="g4059"
         transform="translate(913.56547,1757.9716)">
        <path
           id="path4061"
           d="m -53.823722,96.422492 c -9.25755,0.25673 -19.042351,-4.109186 -23.221276,-12.718053 -2.715825,-4.971012 -4.00545,-10.86661 -2.867625,-16.474819 -9.9591,0.779613 -20.308947,-7.610747 -19.55835,-18.023665 0.570525,-8.6508 6.29745,-16.057815 12.6657,-21.493748 4.823625,-3.311243 10.656675,-4.78776 16.49325,-4.40007 8.600251,-0.146055 16.797601,1.438515 25.326526,1.562947 8.47305,0.390705 17.062651,0.505238 25.233226,3.068843 7.28985,1.532048 14.9232752,0.57456 22.0938754,2.905463 4.9111502,0.945555 8.9298756,3.925245 13.2824256,6.13932 5.52915,5.061405 10.390875,13.274573 6.996675,20.824275 -3.377325,6.872288 -12.2232,9.50774 -19.2753755,7.42731 -3.31650014,0.42621 -0.5149501,6.904617 -2.86470013,9.651268 -2.21760007,5.135923 -6.70477517,9.622858 -12.43777537,10.426157 -5.5167,1.307137 -11.5116,0.380037 -16.622775,-1.943404 -1.647525,-0.990333 -2.286525,5.667648 -5.101876,6.845646 -5.35095,4.802447 -13.220025,5.89867 -20.141925,6.20253 z m -0.4878,-7.078125 c 7.71345,-0.120618 17.01705,-2.60678 20.377275,-10.314432 0.554175,-3.548322 3.173326,-5.729059 5.867326,-2.310063 3.6435,2.913645 8.58345,3.352032 13.081575,3.435432 7.2049502,-0.521372 11.7496503,-7.788912 11.7255753,-14.530716 -0.841275,-3.468585 0.13995,-7.137975 4.4664751,-5.334593 5.0286751,0.0409 11.1174006,0.70659 14.9802756,-3.188302 C 20.371155,52.01841 16.47423,45.03138 12.51468,41.109217 7.0348045,34.878825 -1.8202957,35.474197 -9.2525709,33.89658 -23.242471,32.513085 -37.386647,32.930407 -51.312422,30.738007 c -6.325575,-0.938175 -12.7059,-1.003012 -19.073551,-0.960705 -4.778775,-0.55359 -9.116775,2.361158 -13.231425,4.39671 -5.4309,3.410175 -10.117725,8.916075 -10.058925,15.652823 -0.373575,7.155578 7.094025,11.274443 13.198125,12.478058 4.470225,0.25608 8.793975,1.23132 6.47535,6.602426 -1.477875,9.078948 5.149426,18.989732 14.495551,20.020417 1.71765,0.272005 3.456675,0.41221 5.195775,0.416631 z m 17.107875,-20.208985 c -5.015625,1.972121 -8.5167,-8.288077 -3.582675,-7.827794 1.04805,5.540285 6.68355,3.753945 8.08935,-0.226628 4.470001,0.804413 0.911101,8.91866 -3.195975,8.004658 l -0.65265,0.03897 -0.65835,0.01079 z M -57.919472,66.38294 c -4.9938,0.310188 -7.21875,-5.939727 -4.7598,-9.691677 4.725975,-5.294265 0.07867,7.826947 5.275275,5.615625 2.105475,-1.79973 8.235825,-2.885415 4.961475,1.469992 -1.162275,1.865528 -3.3549,2.706122 -5.47695,2.60606 z m 36.273976,-7.81055 c -2.59035,-3.094282 -4.236675,-7.365172 -8.248425,-9.33321 -5.210926,-3.896715 -11.819551,-4.85247 -18.157351,-4.53156 -5.560275,-1.19709 -10.89765,3.180015 -16.00155,2.068717 1.56795,-4.107097 8.3121,-5.458177 12.5631,-5.881357 7.5321,-0.5751 15.40965,0.468885 22.156801,3.95526 4.103925,3.401843 7.0452,8.22954 7.989975,13.45665 l -0.144375,0.22155 z"
           style="fill:#f5f5f5;fill-opacity:1;fill-rule:evenodd;stroke:none;stroke-width:0.99999994" />
      </g>
      <path
         id="path4061-3"
         d="m 909.33735,1786.0335 c -3.33381,-0.8502 -4.82458,-4.4396 -7.05389,-6.7542 -0.66787,0.6903 -5.1239,5.6198 -4.94818,0.801 -0.0286,-3.1631 -7.08574,0.079 -6.33143,-4.7307 1.01358,-3.703 9.92017,-0.2676 5.85342,-4.7162 -1.66574,-1.6316 -2.94836,-7.0344 1.10707,-5.0729 1.64905,1.657 3.28612,4.3007 4.07503,0.7511 1.99598,-4.1836 6.07534,0.3236 3.86842,3.2413 -0.8468,1.9172 -1.37875,3.7844 1.33064,2.7541 2.60371,-0.5124 9.2455,0.041 7.14829,3.8315 -1.48643,2.4863 -8.83615,0.5161 -5.32188,4.5172 1.05567,1.3109 2.94583,4.7158 0.27251,5.3778 z m -48.30758,-21.0586 c -4.07664,-0.5134 0.67975,-8.0598 -4.74037,-5.6966 -2.52274,1.3865 -8.56148,0.4016 -5.24338,-3.2946 2.28339,-2.1375 7.52982,-2.1395 8.72978,-3.9055 -2.25476,-2.5164 -8.90781,-6.0463 -4.98358,-9.7043 4.0388,-1.2399 5.87567,4.7091 8.93782,4.8436 -0.42851,-4.4798 7.37934,-5.4096 6.28256,-0.4037 -0.73942,2.6701 -2.0613,5.4018 1.85687,4.0891 2.82065,-0.065 9.5384,-2.2951 8.84195,2.3928 -1.56253,3.8387 -6.75679,2.7122 -9.28329,4.2911 2.16267,1.8805 4.39378,7.8696 -0.83586,6.4579 -2.55175,-0.09 -4.31204,-6.8575 -5.76607,-4.0915 -1.35483,1.4552 -1.7259,4.4827 -3.79643,5.0217 z"
         style="fill:#85d8ff;fill-opacity:1;fill-rule:evenodd;stroke:none;stroke-width:0.99999994"
         inkscape:connector-curvature="0"
         sodipodi:nodetypes="ccccccccccccccccccccccccc" />
    </g>
  </g>
</svg>
