<?xml version="1.0" encoding="UTF-8" standalone="no"?>
<svg
   xmlns:dc="http://purl.org/dc/elements/1.1/"
   xmlns:cc="http://creativecommons.org/ns#"
   xmlns:rdf="http://www.w3.org/1999/02/22-rdf-syntax-ns#"
   xmlns:svg="http://www.w3.org/2000/svg"
   xmlns="http://www.w3.org/2000/svg"
   id="svg1385"
   version="1.1"
   viewBox="0 0 47.625001 47.625001"
   height="180"
   width="180">
  <defs
     id="defs1379">
    <clipPath
       id="clipPath4655"
       clipPathUnits="userSpaceOnUse">
      <g
         id="use4657">
        <path
           style="fill:#f5f5f5;fill-opacity:1;fill-rule:evenodd;stroke:none;stroke-width:0.99999994"
           d="m -128.98947,97.953372 c -11.43189,0.408324 -23.70408,-6.429464 -26.6441,-18.009007 -2.27329,-3.72461 2.10007,-11.02979 -3.48063,-11.381458 -5.78821,-1.940616 -11.86316,-5.615661 -13.16006,-12.0702 -2.52329,-11.298894 5.87896,-23.160627 16.95935,-25.696885 14.70979,-4.773026 30.39092,-3.672796 45.61478,-3.321994 13.929717,0.969544 28.505509,3.132865 40.353069,11.034744 6.080235,4.225725 11.077625,10.972157 11.433254,18.541977 -0.21125,5.495093 -2.386283,12.041051 -8.617868,13.033287 -4.32877,1.142417 -9.064302,0.761018 -13.19801,-0.948294 -0.06847,4.3004 -1.932466,8.965422 -4.426577,12.56804 -4.390048,6.042588 -12.77184,6.258537 -19.329358,4.346999 -3.1101,-0.07198 -7.23805,-4.267518 -7.3787,0.833719 -2.04177,4.651062 -6.80106,6.786529 -10.93861,9.195585 -2.24621,1.069183 -4.70214,1.721308 -7.18654,1.873487 z m 2.06689,-7.20117 c 6.37009,-0.19427 12.40813,-4.993238 13.31592,-11.42829 2.63658,-3.903477 7.52148,1.091577 11.17305,1.375356 5.647561,2.096133 12.71424,0.632344 16.002664,-4.750279 2.832722,-3.959573 3.782368,-8.890343 3.443755,-13.678323 -0.586053,-4.886768 4.491742,-3.025527 4.597819,0.49716 5.295176,2.310211 13.618127,0.882374 15.065605,-5.531688 0.71882,-7.645431 -5.996596,-13.612881 -12.501042,-16.281527 -12.989213,-5.279131 -27.063451,-6.725142 -40.852711,-8.453516 -6.35282,-0.237154 -12.69856,0.520629 -19.05754,0.216479 -9.37761,0.313126 -20.05514,1.883977 -26.4177,9.523531 -3.76665,4.394314 -4.72147,11.718236 -0.0707,15.877201 3.29015,3.797151 8.94193,3.993009 12.84762,5.872177 -0.78642,4.307078 -1.5788,8.738476 -0.58938,13.136268 1.25328,8.433373 10.25474,12.277839 17.77125,13.237246 1.74523,0.229124 3.50819,0.43661 5.27136,0.388205 z m -8.3247,-12.208005 c -3.93143,1.294158 -9.89806,-7.268069 -4.01278,-6.238393 0.56978,3.471257 10.53366,2.421353 5.23445,6.01427 l -0.61303,0.157551 z m 18.03222,-7.148438 c -4.28646,-1.302881 -3.10184,-10.152581 1.05999,-10.757671 3.17796,1.395329 2.29968,9.909741 -1.05999,10.757671 z m -16.69189,-1.51026 c -4.5842,-1.301412 -3.80642,-8.783651 -0.4043,-11.083005 5.67129,-1.501844 4.32741,7.751867 1.7709,10.347075 l -0.65514,0.515563 z m 33.937505,-9.284175 c -3.573695,-2.127676 -6.798365,-5.17009 -10.707865,-6.907143 -9.23935,-5.185512 -20.40793,-4.688305 -30.4236,-2.410815 -2.53082,0.256697 -10.50728,4.966171 -8.68935,-0.684025 5.78606,-4.787372 13.61175,-4.961868 20.72618,-5.668719 8.23928,-0.100351 16.44001,2.552215 23.52023,6.657074 2.52342,1.782793 7.93713,5.823013 5.574405,9.013628 z"
           id="path5715" />
      </g>
    </clipPath>
    <clipPath
       id="clipPath4655-8"
       clipPathUnits="userSpaceOnUse">
      <g
         id="use4657-2" />
    </clipPath>
    <clipPath
       id="clipPath4655-0"
       clipPathUnits="userSpaceOnUse">
      <g
         id="use4657-4">
        <path
           style="fill:#f5f5f5;fill-opacity:1;fill-rule:evenodd;stroke:none;stroke-width:0.99999994"
           d="m -128.98947,97.953372 c -11.43189,0.408324 -23.70408,-6.429464 -26.6441,-18.009007 -2.27329,-3.72461 2.10007,-11.02979 -3.48063,-11.381458 -5.78821,-1.940616 -11.86316,-5.615661 -13.16006,-12.0702 -2.52329,-11.298894 5.87896,-23.160627 16.95935,-25.696885 14.70979,-4.773026 30.39092,-3.672796 45.61478,-3.321994 13.929717,0.969544 28.505509,3.132865 40.353069,11.034744 6.080235,4.225725 11.077625,10.972157 11.433254,18.541977 -0.21125,5.495093 -2.386283,12.041051 -8.617868,13.033287 -4.32877,1.142417 -9.064302,0.761018 -13.19801,-0.948294 -0.06847,4.3004 -1.932466,8.965422 -4.426577,12.56804 -4.390048,6.042588 -12.77184,6.258537 -19.329358,4.346999 -3.1101,-0.07198 -7.23805,-4.267518 -7.3787,0.833719 -2.04177,4.651062 -6.80106,6.786529 -10.93861,9.195585 -2.24621,1.069183 -4.70214,1.721308 -7.18654,1.873487 z m 2.06689,-7.20117 c 6.37009,-0.19427 12.40813,-4.993238 13.31592,-11.42829 2.63658,-3.903477 7.52148,1.091577 11.17305,1.375356 5.647561,2.096133 12.71424,0.632344 16.002664,-4.750279 2.832722,-3.959573 3.782368,-8.890343 3.443755,-13.678323 -0.586053,-4.886768 4.491742,-3.025527 4.597819,0.49716 5.295176,2.310211 13.618127,0.882374 15.065605,-5.531688 0.71882,-7.645431 -5.996596,-13.612881 -12.501042,-16.281527 -12.989213,-5.279131 -27.063451,-6.725142 -40.852711,-8.453516 -6.35282,-0.237154 -12.69856,0.520629 -19.05754,0.216479 -9.37761,0.313126 -20.05514,1.883977 -26.4177,9.523531 -3.76665,4.394314 -4.72147,11.718236 -0.0707,15.877201 3.29015,3.797151 8.94193,3.993009 12.84762,5.872177 -0.78642,4.307078 -1.5788,8.738476 -0.58938,13.136268 1.25328,8.433373 10.25474,12.277839 17.77125,13.237246 1.74523,0.229124 3.50819,0.43661 5.27136,0.388205 z m -8.3247,-12.208005 c -3.93143,1.294158 -9.89806,-7.268069 -4.01278,-6.238393 0.56978,3.471257 10.53366,2.421353 5.23445,6.01427 l -0.61303,0.157551 z m 18.03222,-7.148438 c -4.28646,-1.302881 -3.10184,-10.152581 1.05999,-10.757671 3.17796,1.395329 2.29968,9.909741 -1.05999,10.757671 z m -16.69189,-1.51026 c -4.5842,-1.301412 -3.80642,-8.783651 -0.4043,-11.083005 5.67129,-1.501844 4.32741,7.751867 1.7709,10.347075 l -0.65514,0.515563 z m 33.937505,-9.284175 c -3.573695,-2.127676 -6.798365,-5.17009 -10.707865,-6.907143 -9.23935,-5.185512 -20.40793,-4.688305 -30.4236,-2.410815 -2.53082,0.256697 -10.50728,4.966171 -8.68935,-0.684025 5.78606,-4.787372 13.61175,-4.961868 20.72618,-5.668719 8.23928,-0.100351 16.44001,2.552215 23.52023,6.657074 2.52342,1.782793 7.93713,5.823013 5.574405,9.013628 z"
           id="path5715-2" />
      </g>
    </clipPath>
    <clipPath
       id="clipPath4655-8-2"
       clipPathUnits="userSpaceOnUse">
      <g
         id="use4657-2-6" />
    </clipPath>
  </defs>
  <metadata
     id="metadata1382">
    <rdf:RDF>
      <cc:Work
         rdf:about="">
        <dc:format>image/svg+xml</dc:format>
        <dc:type
           rdf:resource="http://purl.org/dc/dcmitype/StillImage" />
        <dc:title></dc:title>
      </cc:Work>
    </rdf:RDF>
  </metadata>
  <g
     transform="translate(0,-249.37498)"
     id="layer1">
    <g
       transform="matrix(0.35277777,0,0,-0.35277777,27.500513,274.3299)"
       id="g4075" />
    <g
       id="g1334"
       transform="matrix(0.35277777,0,0,-0.35277777,-649.92056,906.9943)">
      <g
         id="g3935"
         transform="translate(1896.7847,1750.2175)">
        <path
           id="path3937"
           d="M -3.8696245,99.815752 C -11.001375,99.663228 -17.7879,95.4198 -21.852,89.696611 c -2.784,-3.205131 -3.368925,-7.38464 -3.5196,-11.465977 -0.65505,-2.560836 2.33685,-6.655141 -2.0316,-6.155004 -3.4419,-1.71024 -7.80195,-2.265187 -10.126425,-5.62884 -3.399901,-3.393847 -5.968426,-7.98849 -5.188201,-12.951855 -0.388875,-7.202678 2.748376,-14.906288 9.391951,-18.313936 9.946425,-5.028382 21.36135,-2.086057 31.9968005,-2.802442 14.5692005,-0.249038 29.1459005,0.853275 43.7044515,-0.195518 9.788625,-0.93018 19.9683,3.989025 25.185225,12.333398 2.654625,4.978373 1.425,13.267148 -4.852425,14.712766 -3.40665,0.913927 -8.22165,-2.192468 -7.30275,3.341962 -0.90075,4.922828 -6.08355,8.312588 -10.863375,8.36016 -2.3304,-1.26858 -3.6486,-2.756235 -3.764925,1.00242 -0.711225,6.095356 -2.84475,13.227893 -9.178726,15.589001 -4.770075,1.188847 -10.05525,0.326319 -14.283,-2.149008 -2.606625,2.596062 -3.41055,8.54528 -7.7994002,10.473865 -3.9609751,2.539449 -8.6626502,4.031856 -13.3856253,3.968149 z M -0.97064944,94.01497 C 4.8425257,94.287726 9.7505258,89.859459 11.439751,84.512918 c 1.9398,-2.458187 0.386175,-9.739743 5.256075,-7.728328 3.146775,2.38515 6.376275,4.7299 10.477725,5.099188 5.41575,1.186646 8.916301,-4.674127 9.152776,-9.366548 1.578975,-4.419892 -2.019676,-7.848615 -2.203876,-11.796427 4.200376,-3.069675 7.822426,6.196537 12.882076,3.876315 3.776025,-2.337458 3.105675,-7.790565 5.383275,-11.280631 2.64375,-2.60376 9.273375,6.225743 10.4601,-1.153042 0.53475,-6.08142 -5.168325,-10.515293 -10.237875,-12.591398 -7.5585,-1.843687 -15.4815,-1.355385 -23.211826,-1.605127 -15.7461,-0.157785 -31.5084005,-0.50712 -47.228401,0.677827 -6.2949,-0.473167 -12.482175,2.349975 -16.419,7.25598 -3.89265,5.00352 -2.891325,12.927773 1.277925,17.468401 3.084225,1.985272 8.974425,4.642642 11.93445,1.91895 0.41595,-3.308678 7.27545,-9.44436 7.5621,-3.636563 -3.994725,6.702405 -6.059775,15.817706 -1.4754,22.793263 3.062325,4.849112 7.9197004,9.435243 13.97947556,9.570192 z"
           style="fill:#f5f5f5;fill-opacity:1;fill-rule:evenodd;stroke:none;stroke-width:0.99999994" />
      </g>
      <path
         id="path3937-2"
         d="m 1868.9846,1769.2753 c -2.6519,0.4988 -7.8232,-1.2866 -5.6722,-4.6888 2.7583,-2.7051 7.0611,-2.1979 10.6178,-2.272 4.2966,0.4024 8.9061,-1.2785 12.9798,0.62 2.3906,2.547 -1.4574,6.1717 -4.307,5.9045 -3.432,0.1535 -6.9132,-1.0023 -10.2826,0.1152 -1.1026,0.1843 -2.2179,0.2977 -3.3358,0.3211 z m 63.4262,-0.7119 c -2.6742,0.5978 -7.7136,-1.5706 -3.7581,-4.185 4.7523,-2.465 10.3244,-1.5499 15.4776,-1.861 2.8188,-0.2055 8.5191,-0.1257 7.2254,4.0731 -2.7044,2.1736 -6.5297,1.6579 -9.7944,1.7856 -3.0567,-0.2248 -6.0931,0.2822 -9.1505,0.1873 z m -27.4102,-0.8613 c -2.9147,0.1467 -9.9913,-0.1332 -7.7299,-4.6173 3.3474,-2.5741 7.8515,-1.0404 11.714,-1.6147 3.0315,-0.6967 9.1095,0.2507 7.8783,4.4703 -2.8573,2.166 -6.7706,1.6186 -10.1602,1.7617 -0.5674,0 -1.1348,0 -1.7022,0 z m 17.461,-15.3076 c -2.6476,0.2323 -8.0771,-0.5553 -6.7741,-4.3418 1.9634,-2.785 5.874,-1.9771 8.8182,-1.9541 4.4534,0.6052 9.0423,-2.0868 13.3711,-0.264 3.6588,2.9903 -2.0843,5.4889 -4.7556,5.6795 -3.5018,0.7903 -7.0974,0.6953 -10.6596,0.8804 z m -23.2515,-1.9424 c -5.2247,-0.6434 -10.5088,-0.817 -15.7354,-0.098 -2.8207,0.6077 -7.1104,-1.552 -5.5473,-4.8905 1.7158,-2.4714 5.2296,-2.253 7.9182,-2.2614 3.7221,0.3792 7.4547,0.2222 11.1839,0.2713 3.1074,-0.2923 7.0772,3.3346 5.0719,6.3291 -0.8017,0.6534 -1.911,0.6725 -2.8913,0.6495 z"
         style="fill:#ebebf5;fill-opacity:1;fill-rule:evenodd;stroke:none;stroke-width:0.99999994" />
    </g>
  </g>
</svg>
