<?xml version="1.0" encoding="UTF-8" standalone="no"?>
<svg
   xmlns:dc="http://purl.org/dc/elements/1.1/"
   xmlns:cc="http://creativecommons.org/ns#"
   xmlns:rdf="http://www.w3.org/1999/02/22-rdf-syntax-ns#"
   xmlns:svg="http://www.w3.org/2000/svg"
   xmlns="http://www.w3.org/2000/svg"
   id="svg1385"
   version="1.1"
   viewBox="0 0 47.625001 47.625001"
   height="180"
   width="180">
  <defs
     id="defs1379">
    <clipPath
       id="clipPath4655"
       clipPathUnits="userSpaceOnUse">
      <g
         id="use4657">
        <path
           style="fill:#f5f5f5;fill-opacity:1;fill-rule:evenodd;stroke:none;stroke-width:0.99999994"
           d="m -128.98947,97.953372 c -11.43189,0.408324 -23.70408,-6.429464 -26.6441,-18.009007 -2.27329,-3.72461 2.10007,-11.02979 -3.48063,-11.381458 -5.78821,-1.940616 -11.86316,-5.615661 -13.16006,-12.0702 -2.52329,-11.298894 5.87896,-23.160627 16.95935,-25.696885 14.70979,-4.773026 30.39092,-3.672796 45.61478,-3.321994 13.929717,0.969544 28.505509,3.132865 40.353069,11.034744 6.080235,4.225725 11.077625,10.972157 11.433254,18.541977 -0.21125,5.495093 -2.386283,12.041051 -8.617868,13.033287 -4.32877,1.142417 -9.064302,0.761018 -13.19801,-0.948294 -0.06847,4.3004 -1.932466,8.965422 -4.426577,12.56804 -4.390048,6.042588 -12.77184,6.258537 -19.329358,4.346999 -3.1101,-0.07198 -7.23805,-4.267518 -7.3787,0.833719 -2.04177,4.651062 -6.80106,6.786529 -10.93861,9.195585 -2.24621,1.069183 -4.70214,1.721308 -7.18654,1.873487 z m 2.06689,-7.20117 c 6.37009,-0.19427 12.40813,-4.993238 13.31592,-11.42829 2.63658,-3.903477 7.52148,1.091577 11.17305,1.375356 5.647561,2.096133 12.71424,0.632344 16.002664,-4.750279 2.832722,-3.959573 3.782368,-8.890343 3.443755,-13.678323 -0.586053,-4.886768 4.491742,-3.025527 4.597819,0.49716 5.295176,2.310211 13.618127,0.882374 15.065605,-5.531688 0.71882,-7.645431 -5.996596,-13.612881 -12.501042,-16.281527 -12.989213,-5.279131 -27.063451,-6.725142 -40.852711,-8.453516 -6.35282,-0.237154 -12.69856,0.520629 -19.05754,0.216479 -9.37761,0.313126 -20.05514,1.883977 -26.4177,9.523531 -3.76665,4.394314 -4.72147,11.718236 -0.0707,15.877201 3.29015,3.797151 8.94193,3.993009 12.84762,5.872177 -0.78642,4.307078 -1.5788,8.738476 -0.58938,13.136268 1.25328,8.433373 10.25474,12.277839 17.77125,13.237246 1.74523,0.229124 3.50819,0.43661 5.27136,0.388205 z m -8.3247,-12.208005 c -3.93143,1.294158 -9.89806,-7.268069 -4.01278,-6.238393 0.56978,3.471257 10.53366,2.421353 5.23445,6.01427 l -0.61303,0.157551 z m 18.03222,-7.148438 c -4.28646,-1.302881 -3.10184,-10.152581 1.05999,-10.757671 3.17796,1.395329 2.29968,9.909741 -1.05999,10.757671 z m -16.69189,-1.51026 c -4.5842,-1.301412 -3.80642,-8.783651 -0.4043,-11.083005 5.67129,-1.501844 4.32741,7.751867 1.7709,10.347075 l -0.65514,0.515563 z m 33.937505,-9.284175 c -3.573695,-2.127676 -6.798365,-5.17009 -10.707865,-6.907143 -9.23935,-5.185512 -20.40793,-4.688305 -30.4236,-2.410815 -2.53082,0.256697 -10.50728,4.966171 -8.68935,-0.684025 5.78606,-4.787372 13.61175,-4.961868 20.72618,-5.668719 8.23928,-0.100351 16.44001,2.552215 23.52023,6.657074 2.52342,1.782793 7.93713,5.823013 5.574405,9.013628 z"
           id="path5715" />
      </g>
    </clipPath>
    <clipPath
       id="clipPath4655-8"
       clipPathUnits="userSpaceOnUse">
      <g
         id="use4657-2" />
    </clipPath>
    <clipPath
       id="clipPath4655-0"
       clipPathUnits="userSpaceOnUse">
      <g
         id="use4657-4">
        <path
           style="fill:#f5f5f5;fill-opacity:1;fill-rule:evenodd;stroke:none;stroke-width:0.99999994"
           d="m -128.98947,97.953372 c -11.43189,0.408324 -23.70408,-6.429464 -26.6441,-18.009007 -2.27329,-3.72461 2.10007,-11.02979 -3.48063,-11.381458 -5.78821,-1.940616 -11.86316,-5.615661 -13.16006,-12.0702 -2.52329,-11.298894 5.87896,-23.160627 16.95935,-25.696885 14.70979,-4.773026 30.39092,-3.672796 45.61478,-3.321994 13.929717,0.969544 28.505509,3.132865 40.353069,11.034744 6.080235,4.225725 11.077625,10.972157 11.433254,18.541977 -0.21125,5.495093 -2.386283,12.041051 -8.617868,13.033287 -4.32877,1.142417 -9.064302,0.761018 -13.19801,-0.948294 -0.06847,4.3004 -1.932466,8.965422 -4.426577,12.56804 -4.390048,6.042588 -12.77184,6.258537 -19.329358,4.346999 -3.1101,-0.07198 -7.23805,-4.267518 -7.3787,0.833719 -2.04177,4.651062 -6.80106,6.786529 -10.93861,9.195585 -2.24621,1.069183 -4.70214,1.721308 -7.18654,1.873487 z m 2.06689,-7.20117 c 6.37009,-0.19427 12.40813,-4.993238 13.31592,-11.42829 2.63658,-3.903477 7.52148,1.091577 11.17305,1.375356 5.647561,2.096133 12.71424,0.632344 16.002664,-4.750279 2.832722,-3.959573 3.782368,-8.890343 3.443755,-13.678323 -0.586053,-4.886768 4.491742,-3.025527 4.597819,0.49716 5.295176,2.310211 13.618127,0.882374 15.065605,-5.531688 0.71882,-7.645431 -5.996596,-13.612881 -12.501042,-16.281527 -12.989213,-5.279131 -27.063451,-6.725142 -40.852711,-8.453516 -6.35282,-0.237154 -12.69856,0.520629 -19.05754,0.216479 -9.37761,0.313126 -20.05514,1.883977 -26.4177,9.523531 -3.76665,4.394314 -4.72147,11.718236 -0.0707,15.877201 3.29015,3.797151 8.94193,3.993009 12.84762,5.872177 -0.78642,4.307078 -1.5788,8.738476 -0.58938,13.136268 1.25328,8.433373 10.25474,12.277839 17.77125,13.237246 1.74523,0.229124 3.50819,0.43661 5.27136,0.388205 z m -8.3247,-12.208005 c -3.93143,1.294158 -9.89806,-7.268069 -4.01278,-6.238393 0.56978,3.471257 10.53366,2.421353 5.23445,6.01427 l -0.61303,0.157551 z m 18.03222,-7.148438 c -4.28646,-1.302881 -3.10184,-10.152581 1.05999,-10.757671 3.17796,1.395329 2.29968,9.909741 -1.05999,10.757671 z m -16.69189,-1.51026 c -4.5842,-1.301412 -3.80642,-8.783651 -0.4043,-11.083005 5.67129,-1.501844 4.32741,7.751867 1.7709,10.347075 l -0.65514,0.515563 z m 33.937505,-9.284175 c -3.573695,-2.127676 -6.798365,-5.17009 -10.707865,-6.907143 -9.23935,-5.185512 -20.40793,-4.688305 -30.4236,-2.410815 -2.53082,0.256697 -10.50728,4.966171 -8.68935,-0.684025 5.78606,-4.787372 13.61175,-4.961868 20.72618,-5.668719 8.23928,-0.100351 16.44001,2.552215 23.52023,6.657074 2.52342,1.782793 7.93713,5.823013 5.574405,9.013628 z"
           id="path5715-2" />
      </g>
    </clipPath>
    <clipPath
       id="clipPath4655-8-2"
       clipPathUnits="userSpaceOnUse">
      <g
         id="use4657-2-6" />
    </clipPath>
  </defs>
  <metadata
     id="metadata1382">
    <rdf:RDF>
      <cc:Work
         rdf:about="">
        <dc:format>image/svg+xml</dc:format>
        <dc:type
           rdf:resource="http://purl.org/dc/dcmitype/StillImage" />
        <dc:title></dc:title>
      </cc:Work>
    </rdf:RDF>
  </metadata>
  <g
     transform="translate(0,-249.37498)"
     id="layer1">
    <g
       transform="matrix(0.35277777,0,0,-0.35277777,27.500513,274.3299)"
       id="g4075" />
    <g
       id="g1340"
       transform="matrix(0.35277777,0,0,-0.35277777,-649.14935,846.6695)">
      <g
         id="g3927"
         transform="translate(1893.8731,1573.3837)">
        <path
           id="path3929"
           d="M -5.1005746,81.984994 C -11.0921,82.423459 -17.293625,80.571378 -21.52985,76.182258 c -5.2554,-5.064202 -8.200125,-12.724012 -6.708,-19.975515 -1.759125,-2.858378 -7.747275,-1.639403 -10.271476,-4.868648 -4.460175,-3.851197 -5.700825,-10.686923 -3.001725,-15.910853 1.67895,-5.515132 5.704651,-10.636193 11.613151,-11.81097 10.803525,-1.997115 21.8466753,-0.20466 32.7499506,-0.478448 12.5364754,-0.04225 25.1765254,1.510418 37.1640764,5.240311 3.728175,1.860765 7.851075,3.610852 10.190025,7.273837 3.55935,4.504583 5.11065,11.883541 0.5772,16.290541 -3.548775,3.285082 -8.889075,4.37775 -13.522126,3.168457 0.496351,8.205353 -6.434925,15.595756 -14.459625,16.487311 -3.591225,0.580207 -7.938,0.34299 -10.45005,-2.651858 -3.8838753,5.31291 -8.3855254,11.17539 -15.0679506,12.875805 -0.787875,0.127306 -1.5873,0.161866 -2.384175,0.162766 z m 0.2754,-7.545406 c 5.49412512,0.217028 10.5621753,-3.476002 12.5127753,-8.530065 1.311525,-1.844295 2.0427751,-8.388585 5.1253503,-4.638885 0.35445,4.288328 5.9556,4.90365 9.369225,4.70958 4.33545,-0.624495 7.831275,-4.12593 8.615625,-8.411693 2.2293,-2.663677 -0.55215,-9.42963 3.925275,-9.194977 2.358,4.32696 8.864701,3.116677 11.840476,0.09425 3.547125,-3.494632 1.40205,-9.399 -1.814475,-12.343605 -3.04935,-3.274493 -7.596676,-4.48038 -11.718376,-5.817015 -11.814,-0.627068 -23.5708502,-2.30883 -35.4260256,-2.24514 -6.7560001,0.215167 -13.5127504,-0.627375 -20.2570504,-0.230513 -4.011375,0.43872 -8.740725,1.29513 -10.7091,5.322278 -1.6761,3.356287 -2.9484,8.081737 -0.40785,11.306078 1.99275,2.268915 5.5344,4.286175 8.332275,3.928912 1.1985,-1.773525 5.378475,-7.793985 6.140175,-2.95491 -1.187475,5.21247 -3.207525,10.377188 -2.5308,15.823568 0.747825,4.55769 3.408825,9.210068 7.89045,11.00631 2.85225,1.301888 5.9495253,2.237783 9.1120504,2.175825 z"
           style="fill:#a9a9a9;fill-opacity:1;fill-rule:evenodd;stroke:none;stroke-width:0.99999994" />
      </g>
      <path
         id="path3929-4"
         d="m 1941.603,1684.3154 c -2.4161,-0.1117 -4.8305,-0.6234 -7.1446,-1.3017 -5.0303,-2.08 -8.9348,-6.2237 -11.9618,-10.637 -3.1106,-5.045 -5.1335,-11.3826 -3.3391,-17.2462 1.2758,-3.175 3.2866,-6.0103 5.1939,-8.8348 1.7843,-2.6034 4.0969,-4.9085 7.0938,-6.054 5.2127,-2.4186 11.282,-3.1925 16.8493,-1.6221 2.3491,0.6599 4.7618,1.2666 6.7356,2.784 2.1417,0.7954 3.3778,2.6904 4.9425,4.223 2.1615,2.3445 4.5842,5.1852 4.2722,8.5912 -1.2053,2.7541 -3.2929,-1.2014 -4.8873,-1.7779 -4.3576,-3.2276 -10.183,-2.9349 -15.2123,-1.7535 -2.528,0.3297 -4.7331,1.753 -6.4257,3.6004 -1.8843,1.1329 -2.5072,3.3912 -3.1204,5.3588 -0.7983,4.3398 -0.1185,8.8964 1.3393,13.0271 1.3589,3.039 3.254,5.8659 5.6589,8.1816 0.9568,0.9209 2.6386,3.5271 0.01,3.4611 z m -7.1205,-5.9634 c 0.892,-1.114 -1.981,-2.8833 -2.1828,-4.4619 -2.499,-5.2938 -2.5332,-11.4446 -1.3459,-17.0801 1.0359,-2.7094 3.2957,-4.6893 4.7867,-7.1336 2.1978,-1.7894 5.0839,-2.6941 7.8662,-3.1386 3.7027,-0.504 7.4401,-0.099 11.158,-0.099 -2.229,-1.3258 -4.5503,-2.6306 -7.1133,-3.278 -3.5527,-0.8676 -7.353,-1.1347 -10.9248,-0.2303 -4.1272,0.6843 -8.1165,2.8843 -10.2469,6.5892 -2.8279,4.678 -4.6542,10.4968 -2.9779,15.9056 1.193,4.2457 4.4235,7.4549 7.3316,10.5994 1.0996,0.8955 2.2194,2.0357 3.6491,2.3272 z"
         style="fill:#eaeaa0;fill-opacity:1;fill-rule:evenodd;stroke:none;stroke-width:0.99999994" />
      <path
         id="path3929-1"
         d="m 1938.0147,1592.7671 c 1.4827,-0.1886 1.4867,-0.3585 0,0 z m 0,0 c -4.596,-0.3353 -9.6927,-0.5324 -13.4723,-3.4759 -3.2175,-2.8873 1.569,-5.4415 4.2938,-4.2644 3.4615,1.0174 7.0627,0.896 10.6284,0.9733 2.6595,0.1013 6.0934,0.8487 7.0068,3.7188 -1.0311,2.7865 -4.9106,2.4015 -7.3941,2.9197 l -0.6123,0.069 -0.4503,0.06 z m -27.8774,-3.5639 c -5.421,-0.067 -10.8084,-0.7927 -16.2105,-1.0688 -3.9017,-0.7469 -1.3215,-5.8466 1.9065,-5.0757 4.4785,0 8.9098,1.0052 13.4064,0.8104 3.0245,-1.0734 8.3484,1.4891 4.9085,4.7315 -1.2272,0.6338 -2.6693,0.576 -4.0109,0.6026 z m -31.9293,-0.605 c -3.6875,-0.3317 -7.4473,-0.015 -11.0825,-0.7971 -4.4451,-0.1919 -3.9596,-6.2876 0.4174,-5.7443 3.464,-0.191 6.9285,0.3032 10.3942,-0.054 2.4399,-0.219 6.493,0.6513 5.4753,3.9825 -0.5363,2.2998 -3.2662,2.5733 -5.2044,2.613 z m 46.5147,-13.9028 c -3.7785,-0.032 -7.4269,-1.2269 -11.2119,-1.2891 -3.9369,0.5825 -4.8601,-5.4874 -0.6818,-5.4996 4.111,-0.5829 8.2227,0.4958 12.3492,0.1988 2.3985,0.016 5.7003,0.7552 6.3262,3.4551 -0.1651,3.3831 -4.4322,2.9124 -6.7817,3.1348 z m -33.9917,-1.147 c -3.6156,-0.3891 -7.2335,-0.8549 -10.8549,-1.2591 -3.7401,-0.3122 -3.8718,-5.5435 0.099,-5.2058 4.2799,-0.4263 8.6018,0.069 12.8641,0.4878 2.96,-0.2893 6.6552,3.2858 2.9042,5.2443 -1.545,0.7617 -3.3326,0.7205 -5.0126,0.7328 z"
         style="fill:#ebebf5;fill-opacity:1;fill-rule:evenodd;stroke:none;stroke-width:0.99999994" />
    </g>
  </g>
</svg>
